<svg width="460" height="460" viewBox="0 0 460 460" fill="none" xmlns="http://www.w3.org/2000/svg">
<circle cx="230" cy="230" r="230" fill="#1B1C1E"/>
<path d="M184 291C184.586 292.74 185.263 294.444 186.027 296.106V296.111C186.646 297.464 187.32 298.782 188.047 300.066H272.851V300.244C273.62 298.903 274.327 297.523 274.973 296.102C275.739 294.442 276.416 292.739 277 291H184ZM186.138 296.053V295.228H274.874V296.053H186.138ZM192.748 307H268.252C269.801 305.074 271.213 303.033 272.476 300.891H188.524C189.787 303.033 191.199 305.074 192.748 307Z" fill="#3F3D56"/>
<path d="M278 287C277.695 288.018 277.339 289.017 276.939 290H183.061C182.661 289.017 182.305 288.018 182 287H278Z" fill="#3F3D56"/>
<path d="M278.154 286V285.337H180.846V286C180.505 284.363 180.223 282.696 180 281H279C278.78 282.693 278.498 284.36 278.154 286Z" fill="#3F3D56"/>
<path d="M180.412 276.483V277.288H280.899C280.822 278.54 280.701 279.776 280.527 281H180.473C180.303 279.784 180.178 278.552 180.105 277.304C180.032 276.249 180 275.187 180 274.112C180 273.387 180.016 272.666 180.044 271.95V271.942C180.113 270.416 180.245 268.91 180.44 267.425V267.421C180.61 266.176 180.822 264.947 181.075 263.733H279.764V263C280.095 264.457 280.359 265.939 280.556 267.445H180.618V268.25H280.657C280.79 269.373 280.884 270.506 280.939 271.648L280.952 271.962H180.517V272.767H280.98C280.996 273.214 281 273.661 281 274.112C281 274.909 280.98 275.698 280.943 276.483H180.412Z" fill="#3F3D56"/>
<path d="M279 263H182C182.283 261.662 182.61 260.345 182.983 259.047H278.001V259C278.383 260.312 278.713 261.645 279 263Z" fill="#3F3D56"/>
<path d="M278 258H183C183.496 256.636 184.062 255.302 184.7 254V254.686H276.3V254.004C276.936 255.303 277.503 256.636 278 258Z" fill="#3F3D56"/>
<path d="M276 254H185C185.549 252.708 186.149 251.443 186.801 250.206H274.096V250C274.788 251.3 275.422 252.634 276 254Z" fill="#3F3D56"/>
<path d="M274 249H187C191.352 241.413 197.673 235.1 205.316 230.707C212.959 226.315 221.65 224 230.5 224C239.35 224 248.041 226.315 255.684 230.707C263.327 235.1 269.648 241.413 274 249Z" fill="#3F3D56"/>
<path opacity="0.5" d="M279 286V287H278C278.404 286.671 278.737 286.338 279 286Z" fill="black"/>
<path opacity="0.5" d="M271 245H189V246H271V245Z" fill="black"/>
<path opacity="0.5" d="M268 241H193V242H268V241Z" fill="black"/>
<path opacity="0.5" d="M257.128 231.339L202.615 231.446L202.616 232.25L257.129 232.143L257.128 231.339Z" fill="black"/>
<path d="M223 247H199V301H223V247Z" fill="#E6E6E6"/>
<path d="M210.505 253H211.495C212.955 253 214.355 253.567 215.388 254.576C216.42 255.585 217 256.954 217 258.381V266H205V258.381C205 256.954 205.58 255.585 206.612 254.576C207.645 253.567 209.045 253 210.505 253Z" fill="#3F3D56"/>
<path d="M254 247C255.591 247 257.117 247.68 258.243 248.891C259.368 250.102 260 251.744 260 253.456V264H248V253.456C248 251.744 248.632 250.102 249.757 248.891C250.883 247.68 252.409 247 254 247Z" fill="#E6E6E6"/>
<path d="M277 267.923C277 268.283 276.973 268.642 276.92 269H230V267H276.94C276.979 267.306 276.999 267.614 277 267.923Z" fill="#E6E6E6"/>
<path d="M237.036 258.947L237.555 258.16C237.401 257.742 237.223 257.333 237.022 256.935L236.687 257.202L236.952 256.798C236.699 256.309 236.5 256 236.5 256C235.861 257.026 235.392 258.146 235.112 259.317L235.778 260.328L235.04 259.743C235.014 259.942 235.001 260.142 235 260.342C235 262.362 235.672 264 236.5 264C237.328 264 238 262.362 238 260.342C237.984 259.699 237.869 259.063 237.657 258.455L237.036 258.947Z" fill="white"/>
<path d="M240.539 260.515L241.322 260.314C241.483 259.902 241.624 259.48 241.745 259.049L241.386 259.003L241.787 258.9C241.932 258.365 242 258 242 258C241.002 258.288 240.049 258.766 239.176 259.414L238.96 260.62L238.876 259.672C238.741 259.797 238.612 259.932 238.491 260.077C237.272 261.54 236.682 263.203 237.173 263.792C237.664 264.382 239.05 263.674 240.269 262.211C240.648 261.734 240.963 261.191 241.205 260.6L240.539 260.515Z" fill="white"/>
<path d="M241 266.959C238.845 267.054 236.498 266.953 234 266.959V263C236.322 263.225 238.678 263.225 241 263V266.959Z" fill="#E6E6E6"/>
<path d="M267.357 258.947L267.703 258.16C267.6 257.742 267.482 257.333 267.348 256.935L267.124 257.202L267.302 256.798C267.133 256.309 267 256 267 256C266.574 257.026 266.261 258.146 266.074 259.317L266.518 260.328L266.027 259.743C266.009 259.942 266 260.142 266 260.342C266 262.362 266.448 264 267 264C267.552 264 268 262.362 268 260.342C267.99 259.699 267.912 259.063 267.771 258.455L267.357 258.947Z" fill="white"/>
<path d="M271.247 260.515L272.187 260.314C272.379 259.902 272.549 259.48 272.694 259.049L272.263 259.003L272.744 258.9C272.918 258.365 273 258 273 258C271.802 258.288 270.658 258.766 269.611 259.414L269.353 260.62L269.252 259.672C269.089 259.797 268.935 259.932 268.789 260.077C267.326 261.54 266.618 263.203 267.208 263.792C267.797 264.382 269.46 263.674 270.923 262.211C271.377 261.734 271.756 261.191 272.046 260.6L271.247 260.515Z" fill="white"/>
<path d="M272 266.959C269.845 267.054 267.498 266.953 265 266.959V263C267.322 263.225 269.678 263.225 272 263V266.959Z" fill="#E6E6E6"/>
<path d="M202 278C203.657 278 205 277.105 205 276C205 274.895 203.657 274 202 274C200.343 274 199 274.895 199 276C199 277.105 200.343 278 202 278Z" fill="#3F3D56"/>
<path d="M347 338.094C321.293 374.919 278.679 399 230.458 399C181.659 399 138.602 374.339 113 336.764C135.048 294.73 179.815 305.143 230.458 305.143C281.631 305.143 325.185 295.338 347 338.094Z" fill="white"/>
<path d="M230.458 314.711C279.135 314.711 320.918 305.771 343.654 342C344.798 340.48 345.913 338.937 347 337.372C325.185 294.268 281.631 304.152 230.458 304.152C179.815 304.152 135.048 293.654 113 336.032C114.09 337.644 115.212 339.233 116.366 340.796C139.404 305.21 182.27 314.711 230.458 314.711Z" fill="#CA181C"/>
<path d="M230.39 400C195.606 399.973 162.034 387.18 135.999 364.032C109.965 340.883 93.2661 308.979 89.0507 274.33C84.8352 239.682 93.394 204.683 113.114 175.929C132.834 147.175 162.353 126.652 196.109 118.227C229.864 109.803 265.524 114.059 296.369 130.194C327.214 146.329 351.112 173.228 363.561 205.821C376.01 238.415 376.149 274.452 363.953 307.142C351.756 339.831 328.066 366.915 297.347 383.29C276.726 394.271 253.735 400.009 230.39 400ZM230.39 114.836C208.904 114.846 187.702 119.767 168.394 129.224C149.085 138.682 132.176 152.429 118.951 169.422C105.725 186.414 96.5301 206.207 92.0629 227.297C87.5958 248.387 87.974 270.222 93.1689 291.143C98.3637 312.065 108.239 331.525 122.045 348.046C135.851 364.567 153.225 377.716 172.85 386.494C192.475 395.273 213.834 399.451 235.307 398.712C256.781 397.972 277.804 392.334 296.783 382.226C316.528 371.641 333.515 356.543 346.37 338.151C360.07 318.455 368.573 295.597 371.088 271.71C373.604 247.824 370.048 223.687 360.753 201.552C349.938 175.829 331.8 153.88 308.61 138.455C285.421 123.03 258.211 114.814 230.39 114.836Z" fill="#3F3D56"/>
<path d="M230 399C211.351 399.004 192.884 395.321 175.654 388.162C158.424 381.002 142.768 370.505 129.581 357.272C116.395 344.039 105.935 328.328 98.8004 311.037C91.6658 293.747 87.9957 275.214 88 256.5C88 177.925 151.701 114 230 114C308.299 114 372 177.925 372 256.5C372.063 285.711 363.123 314.226 346.403 338.137C333.298 356.918 315.877 372.254 295.615 382.848C275.354 393.442 252.847 398.983 230 399ZM230 115.206C152.363 115.206 89.2017 178.59 89.2017 256.5C89.204 286.56 98.7587 315.836 116.477 340.073C134.196 364.311 159.155 382.246 187.727 391.273C216.299 400.299 246.996 399.947 275.355 390.267C303.713 380.587 328.257 362.083 345.419 337.446C361.997 313.737 370.861 285.463 370.798 256.5C370.798 178.59 307.636 115.206 230 115.206Z" fill="#3F3D56"/>
<path d="M140 179C160.987 179 178 161.987 178 141C178 120.013 160.987 103 140 103C119.013 103 102 120.013 102 141C102 161.987 119.013 179 140 179Z" fill="#CA181C"/>
<path d="M302 190C337.899 190 367 160.675 367 124.5C367 88.3253 337.899 59 302 59C266.101 59 237 88.3253 237 124.5C237 160.675 266.101 190 302 190Z" fill="white"/>
<path opacity="0.2" d="M350.501 81C356.574 95.2808 357.398 111.267 352.825 126.102C348.252 140.938 338.58 153.655 325.537 161.982C312.494 170.309 296.931 173.703 281.627 171.558C266.324 169.412 252.278 161.867 242 150.271C245.71 158.996 251.263 166.806 258.275 173.159C265.286 179.513 273.588 184.258 282.605 187.067C291.622 189.876 301.138 190.68 310.495 189.425C319.852 188.169 328.826 184.884 336.794 179.797C344.763 174.709 351.535 167.941 356.643 159.962C361.751 151.982 365.072 142.982 366.376 133.584C367.68 124.186 366.935 114.616 364.194 105.536C361.453 96.4567 356.78 88.0845 350.501 81Z" fill="black"/>
<path d="M302.5 125H302.684L306 311H299L302.5 125Z" fill="#3F3D56"/>
<path d="M314.083 226.237L312.576 223.361L301.759 229.081L303.266 231.957L314.083 226.237Z" fill="#3F3D56"/>
<path d="M292 303C292 303 292.233 297.402 297 298.053L292 303Z" fill="#3F3D56"/>
<path d="M290 298C291.657 298 293 296.657 293 295C293 293.343 291.657 292 290 292C288.343 292 287 293.343 287 295C287 296.657 288.343 298 290 298Z" fill="white"/>
<path d="M290 299H289V305H290V299Z" fill="#3F3D56"/>
<path d="M329 314C329 314 329.233 308.402 334 309.053L329 314Z" fill="#3F3D56"/>
<path d="M327.5 309C328.881 309 330 307.433 330 305.5C330 303.567 328.881 302 327.5 302C326.119 302 325 303.567 325 305.5C325 307.433 326.119 309 327.5 309Z" fill="white"/>
<path d="M328 310H327V315H328V310Z" fill="#3F3D56"/>
<path d="M130 316C130 316 130.233 310.402 135 311.053L130 316Z" fill="#3F3D56"/>
<path d="M128 311C129.657 311 131 309.657 131 308C131 306.343 129.657 305 128 305C126.343 305 125 306.343 125 308C125 309.657 126.343 311 128 311Z" fill="white"/>
<path d="M129 313H128V319H129V313Z" fill="#3F3D56"/>
<path d="M314 307C314 307 314.279 301.402 320 302.053L314 307Z" fill="#3F3D56"/>
<path d="M312 301C313.657 301 315 299.881 315 298.5C315 297.119 313.657 296 312 296C310.343 296 309 297.119 309 298.5C309 299.881 310.343 301 312 301Z" fill="white"/>
<path d="M312 303H311V309H312V303Z" fill="#3F3D56"/>
<path d="M160.392 143.268L164 140.045C161.197 139.7 160.045 141.407 159.574 142.758C157.384 141.743 155 143.073 155 143.073L162.219 146C161.855 144.914 161.221 143.966 160.392 143.268Z" fill="#3F3D56"/>
<path d="M216.392 173.268L220 170.045C217.197 169.7 216.045 171.407 215.574 172.758C213.384 171.743 211 173.073 211 173.073L218.219 176C217.855 174.914 217.221 173.966 216.392 173.268Z" fill="#3F3D56"/>
<path d="M156.392 199.723L160 197.038C157.197 196.75 156.045 198.172 155.574 199.298C153.384 198.452 151 199.561 151 199.561L158.219 202C157.855 201.095 157.221 200.305 156.392 199.723Z" fill="#3F3D56"/>
<path opacity="0.2" d="M281 274.382C281.009 280.789 279.671 287.128 277.072 293L193.366 251.614L187 248.496L195.626 248.03L270.388 244C277.504 252.156 281 262.773 281 274.382Z" fill="black"/>
<path d="M290 248H171V238.512L230.101 214L290 238.512V248Z" fill="#CA181C"/>
</svg>
