<svg width="80" height="95" viewBox="0 0 80 95" fill="none" xmlns="http://www.w3.org/2000/svg">
<path d="M66.6553 91.1885C61.4862 96.2018 55.8424 95.4102 50.4096 93.0355C44.6603 90.608 39.3857 90.5025 33.3199 93.0355C25.7245 96.3073 21.7159 95.3574 17.1797 91.1885C-8.56024 64.6446 -4.76253 24.2219 24.4587 22.7444C31.5793 23.1138 36.5374 26.6494 40.7044 26.966C46.9284 25.6995 52.8886 22.0583 59.5346 22.5333C67.4992 23.1665 73.5123 26.3328 77.4682 32.0321C61.0115 41.9003 64.9147 63.5892 80 69.6579C76.9935 77.5736 73.0903 85.4364 66.6026 91.2413L66.6553 91.1885ZM40.1769 22.4277C39.3857 10.6598 48.9327 0.94988 59.9038 0C61.4335 13.6149 47.5613 23.747 40.1769 22.4277Z" fill="white"/>
</svg>
