<svg width="202" height="229" viewBox="0 0 202 229" fill="none" xmlns="http://www.w3.org/2000/svg">
<path d="M130.224 169.545C130.675 169.787 131.189 169.883 131.697 169.822C132.205 169.761 132.682 169.544 133.063 169.202C133.444 168.86 133.711 168.408 133.828 167.908C133.945 167.408 133.906 166.884 133.716 166.408C133.767 166.154 133.803 165.972 133.854 165.718C134.83 164.804 136.056 164.203 137.374 163.992C138.693 163.781 140.043 163.971 141.254 164.536C142.464 165.101 143.479 166.016 144.168 167.164C144.857 168.312 145.188 169.64 145.12 170.979C144.812 178.526 145.183 186.671 140.186 192.756C162.994 174.046 173.394 142.172 166.428 113.505C163.01 108.724 161.416 102.373 162.949 96.6175C164.872 98.4954 168.621 97.9909 168.049 94.7401C167.741 93.4553 167.423 92.1745 167.116 90.8897C180.253 85.7437 183.682 105.352 168.121 113.336C169.384 118.786 170.075 124.354 170.184 129.948C171.941 124.904 174.865 120.35 178.717 116.662C182.447 113.291 187.378 111.309 191.966 109.047C197.548 106.288 203.744 111.758 201.546 117.598C197.829 117.12 195.2 121.579 198.572 123.975C192.649 133.961 181.292 140.308 169.753 140.409C168.586 151.803 165.014 162.817 159.273 172.716C166.645 161.464 180.91 164.703 192.184 164.224C192.932 164.129 193.691 164.255 194.369 164.586C195.047 164.917 195.614 165.439 196.001 166.089C196.389 166.738 196.58 167.486 196.551 168.243C196.522 168.999 196.274 169.73 195.838 170.348C194.355 170.26 192.867 170.321 191.396 170.529C190.704 170.632 190.06 170.947 189.554 171.431C189.047 171.916 188.703 172.545 188.567 173.234C188.431 173.923 188.51 174.637 188.794 175.279C189.079 175.92 189.554 176.458 190.154 176.818C180.265 185.919 164.94 187.876 152.913 182.068C149.357 186.565 145.346 190.678 140.943 194.342L123.062 185.785C123.092 185.555 123.133 185.322 123.17 185.095C124.775 185.991 126.484 186.687 128.258 187.166C126.35 179.866 124.225 175.591 130.223 169.545H130.224Z" fill="#F2F2F2"/>
<path d="M98.6283 152.276C98.3015 152.671 97.8616 152.956 97.3683 153.091C96.8749 153.227 96.352 153.207 95.8704 153.034C95.3887 152.861 94.9716 152.544 94.6755 152.125C94.3795 151.707 94.2188 151.207 94.2152 150.693C94.0728 150.478 93.9706 150.323 93.8282 150.107C92.5808 149.63 91.2199 149.537 89.9198 149.841C88.6197 150.145 87.4398 150.833 86.5312 151.814C85.6226 152.796 85.0267 154.028 84.82 155.352C84.6133 156.676 84.8052 158.031 85.371 159.245C88.4932 166.118 91.2095 173.802 98.1241 177.545C69.9702 168.853 48.3623 143.273 44.0413 114.085C45.4102 108.364 44.5003 101.878 40.9182 97.1279C39.8426 99.5954 36.1806 100.548 35.4897 97.3203C35.2917 96.014 35.105 94.7073 34.9068 93.4011C20.8068 93.6096 24.9983 113.068 42.4099 114.57C43.2887 120.096 44.7405 125.514 46.7416 130.736C43.2192 126.73 38.7995 123.62 33.8461 121.662C29.1257 119.953 23.8139 119.984 18.7153 119.627C12.5085 119.185 8.82601 126.597 13.0558 131.173C16.3181 129.324 20.4289 132.458 18.2061 135.954C27.4436 142.959 40.3466 144.537 51.071 140.261C56.4331 150.372 63.8803 159.219 72.9163 166.213C61.8615 158.583 49.8673 166.985 39.2463 170.81C38.518 171.006 37.8621 171.41 37.3587 171.973C36.8553 172.537 36.526 173.235 36.4112 173.983C36.2963 174.731 36.4008 175.496 36.7118 176.186C37.0229 176.875 37.5271 177.459 38.1629 177.865C39.5036 177.223 40.9046 176.716 42.3452 176.351C43.0247 176.184 43.7389 176.233 44.3899 176.49C45.041 176.746 45.597 177.199 45.9817 177.785C46.3664 178.372 46.5611 179.063 46.5389 179.765C46.5168 180.467 46.279 181.145 45.8581 181.706C58.4368 186.39 73.3642 182.399 82.3207 172.466C87.3034 175.284 92.5644 177.574 98.0188 179.3L111.364 164.605C111.249 164.404 111.124 164.203 111.004 164.006C109.854 165.445 108.533 166.736 107.071 167.852C106.094 160.369 106.456 155.604 98.6289 152.276L98.6283 152.276Z" fill="#F2F2F2"/>
<path d="M102.063 90.1822C102.572 90.1306 103.052 89.9232 103.44 89.5881C103.828 89.253 104.103 88.8064 104.229 88.3089C104.356 87.8113 104.326 87.2868 104.146 86.8064C103.965 86.326 103.642 85.913 103.22 85.6233C103.121 85.3843 103.05 85.2126 102.951 84.9735C103.254 83.6682 103.937 82.4833 104.915 81.5706C105.892 80.6579 107.119 80.0591 108.437 79.8508C109.756 79.6425 111.107 79.8344 112.316 80.4017C113.526 80.969 114.539 81.8859 115.226 83.035C119.161 89.4736 123.993 96.0267 123.224 103.875C131.767 75.5771 122.697 43.297 100.993 23.3976C95.5003 21.3417 90.6493 16.9617 88.7251 11.326C91.3647 11.8084 94.197 9.29112 91.9158 6.91315C90.9471 6.01866 89.9716 5.13338 89.003 4.23883C97.0503 -7.3858 110.788 6.97245 102.304 22.3097C106.379 26.1275 110.046 30.3626 113.243 34.9458C111.9 29.7749 111.799 24.3576 112.948 19.1397C114.172 14.2542 117.164 9.84869 119.717 5.40359C122.818 -0.011401 131 1.06182 132.418 7.13966C129.068 8.82336 129.362 13.9967 133.492 14.0984C134.122 25.7031 128.219 37.3285 118.696 43.8705C124.055 53.9825 127.207 65.125 127.939 76.5556C127.809 63.0891 141.451 57.7941 150.543 51.0862C151.111 50.5889 151.812 50.2685 152.558 50.1639C153.305 50.0594 154.066 50.1752 154.748 50.4973C155.43 50.8194 156.004 51.3339 156.4 51.978C156.796 52.622 156.997 53.3678 156.978 54.1244C155.698 54.882 154.497 55.7653 153.391 56.7613C152.874 57.234 152.515 57.8557 152.363 58.5413C152.212 59.2268 152.275 59.9426 152.545 60.5905C152.815 61.2384 153.277 61.7867 153.87 62.1603C154.462 62.5338 155.155 62.7143 155.853 62.6771C152.698 75.7675 141.064 85.9686 127.854 87.8792C127.399 93.6021 126.354 99.2621 124.733 104.768L105.138 107.673C105.035 107.465 104.939 107.248 104.843 107.039C106.674 106.885 108.479 106.506 110.218 105.911C104.58 100.919 100.441 98.5592 102.062 90.1825L102.063 90.1822Z" fill="#F2F2F2"/>
<path d="M121.771 83.8747C112.85 83.8747 108.011 82.7803 106.321 80.4443C104.83 78.3831 105.83 75.6635 106.987 72.5147C107.819 70.2513 108.762 67.6861 108.762 65.1472C108.762 52.7987 114.999 46.5373 127.301 46.5373C133.421 46.5373 139.992 49.8011 144.879 55.268C149.322 60.238 151.535 66.1863 150.952 71.5874C150.473 76.017 148.419 78.93 144.488 80.7553L144.258 80.8621L144.193 80.6164C143.853 79.3451 143.279 78.1491 142.499 77.0909C142.423 78.752 142.006 80.3795 141.274 81.871L141.232 81.956L141.141 81.9821C136.692 83.2543 131.412 83.599 127.309 83.7569C125.312 83.835 123.466 83.8743 121.771 83.8747Z" fill="#2F2E41"/>
<path d="M124.203 101.08C123.861 100.071 123.284 99.1584 122.521 98.418C121.757 97.6775 120.828 97.1306 119.812 96.8225C118.796 96.5144 117.721 96.4541 116.677 96.6465C115.632 96.839 114.649 97.2786 113.808 97.929L84.4633 115.541L75.281 93.0495C76.0567 91.9072 76.452 90.5476 76.4104 89.1657C76.3688 87.7838 75.8922 86.4507 75.0492 85.3575C74.2061 84.2642 73.0398 83.4671 71.7176 83.0805C70.3954 82.6938 68.9851 82.7374 67.6891 83.2051C66.3931 83.6727 65.2779 84.5404 64.5035 85.6837C63.7291 86.8269 63.3353 88.187 63.3785 89.5688C63.4216 90.9506 63.8997 92.2832 64.744 93.3755C65.5882 94.4677 66.7554 95.2635 68.0781 95.6487C68.644 102.134 71.7893 131.124 82.7312 130.07C91.9283 129.184 114.769 113.914 121.863 108.62C122.998 107.773 123.836 106.587 124.256 105.232C124.677 103.878 124.658 102.424 124.203 101.08Z" fill="#FFB6B6"/>
<path d="M146.316 229H120.776L116.493 207.742L115.104 229H91.3788C91.3879 212.306 92.2542 195.623 93.9742 179.018L94.2682 178.013L94.7328 176.405L95.0268 175.395L99.9363 158.471L100.324 157.127H129.887C131.589 158.731 133.158 160.471 134.58 162.329C135.061 162.946 135.564 163.613 136.08 164.332C136.438 164.841 136.808 165.375 137.179 165.936C140.473 170.859 142.936 176.294 144.467 182.022V182.026C144.727 183.006 144.957 184.008 145.157 185.034V185.038C145.336 185.949 145.494 186.873 145.617 187.819C145.711 188.507 145.792 189.205 145.852 189.911C146.207 193.821 146.082 197.761 145.481 201.641L146.316 229Z" fill="#2F2E41"/>
<path d="M10.9015 34.619C12.5602 33.9745 13.5427 32.513 13.096 31.3547C12.6494 30.1964 10.9427 29.7799 9.28404 30.4244C7.62539 31.069 6.64287 32.5305 7.08953 33.6888C7.53618 34.8471 9.24285 35.2635 10.9015 34.619Z" fill="#E6E6E6"/>
<path d="M31.7853 31.9297C33.4439 31.2852 34.4264 29.8237 33.9798 28.6654C33.5331 27.5071 31.8264 27.0906 30.1678 27.7351C28.5091 28.3797 27.5266 29.8412 27.9733 30.9995C28.4199 32.1578 30.1266 32.5742 31.7853 31.9297Z" fill="#3F3D56"/>
<path d="M9.09033 52.5051C10.749 51.8606 11.7315 50.3991 11.2849 49.2408C10.8382 48.0825 9.13151 47.666 7.47286 48.3106C5.81421 48.9551 4.83169 50.4166 5.27834 51.5749C5.72499 52.7332 7.43168 53.1497 9.09033 52.5051Z" fill="#FF6584"/>
<path d="M3.04879 60.3948C3.80973 60.214 4.21671 59.1772 3.95781 58.0792C3.69891 56.9811 2.87215 56.2375 2.11122 56.4183C1.35029 56.5991 0.943312 57.6359 1.20222 58.7339C1.46112 59.832 2.28786 60.5756 3.04879 60.3948Z" fill="#E6E6E6"/>
<path d="M2.92453 73.7522C3.68546 73.5714 4.09243 72.5347 3.83353 71.4366C3.57463 70.3386 2.74789 69.595 1.98695 69.7758C1.22602 69.9566 0.819045 70.9933 1.07795 72.0914C1.33685 73.1895 2.16359 73.933 2.92453 73.7522Z" fill="#3F3D56"/>
<path d="M21.2536 46.0858C22.0146 45.905 22.4215 44.8683 22.1626 43.7702C21.9037 42.6722 21.077 41.9286 20.3161 42.1094C19.5551 42.2902 19.1481 43.3269 19.407 44.425C19.6659 45.523 20.4927 46.2666 21.2536 46.0858Z" fill="#E6E6E6"/>
<path d="M10.2547 43.4046C11.0156 43.2238 11.4226 42.187 11.1637 41.089C10.9048 39.9909 10.0781 39.2473 9.31712 39.4281C8.55619 39.6089 8.14921 40.6456 8.40812 41.7437C8.66702 42.8418 9.49376 43.5854 10.2547 43.4046Z" fill="#FF6584"/>
<path d="M21.9127 31.1046C22.6737 30.9238 23.0807 29.8871 22.8217 28.789C22.5628 27.6909 21.7361 26.9473 20.9752 27.1281C20.2142 27.3089 19.8073 28.3457 20.0662 29.4437C20.3251 30.5418 21.1518 31.2854 21.9127 31.1046Z" fill="#3F3D56"/>
<path d="M27.3347 123.554C28.1367 122.608 27.6889 120.903 26.3345 119.746C24.9801 118.589 23.2321 118.417 22.4301 119.363C21.6281 120.309 22.0759 122.014 23.4303 123.171C24.7846 124.328 26.5327 124.5 27.3347 123.554Z" fill="#E6E6E6"/>
<path d="M15.0352 106.399C15.8372 105.453 15.3894 103.749 14.035 102.591C12.6806 101.434 10.9326 101.262 10.1306 102.208C9.3286 103.154 9.7764 104.859 11.1308 106.016C12.4851 107.174 14.2332 107.345 15.0352 106.399Z" fill="#3F3D56"/>
<path d="M43.865 116.637C44.667 115.691 44.2192 113.986 42.8648 112.829C41.5105 111.671 39.7624 111.5 38.9604 112.446C38.1584 113.391 38.6062 115.096 39.9606 116.254C41.315 117.411 43.063 117.582 43.865 116.637Z" fill="#FF6584"/>
<path d="M52.0771 116.826C52.9157 116.075 53.1734 114.991 52.6527 114.405C52.132 113.819 51.0301 113.954 50.1914 114.705C49.3528 115.457 49.0951 116.54 49.6158 117.126C50.1365 117.712 51.2384 117.577 52.0771 116.826Z" fill="#E6E6E6"/>
<path d="M63.8371 110.576C64.6758 109.824 64.9335 108.74 64.4128 108.155C63.8921 107.569 62.7902 107.703 61.9515 108.455C61.1129 109.206 60.8552 110.29 61.3759 110.876C61.8966 111.461 62.9985 111.327 63.8371 110.576Z" fill="#3F3D56"/>
<path d="M30.8745 107.569C31.7131 106.817 31.9708 105.733 31.4501 105.148C30.9294 104.562 29.8275 104.696 28.9889 105.448C28.1503 106.199 27.8925 107.283 28.4132 107.869C28.9339 108.454 30.0359 108.32 30.8745 107.569Z" fill="#E6E6E6"/>
<path d="M33.7629 118.555C34.6015 117.803 34.8592 116.719 34.3385 116.134C33.8178 115.548 32.7159 115.683 31.8773 116.434C31.0387 117.185 30.7809 118.269 31.3016 118.855C31.8223 119.441 32.9243 119.306 33.7629 118.555Z" fill="#FF6584"/>
<path d="M17.4373 114.12C18.276 113.369 18.5337 112.285 18.013 111.699C17.4923 111.114 16.3904 111.248 15.5517 111.999C14.7131 112.751 14.4554 113.835 14.9761 114.42C15.4968 115.006 16.5987 114.871 17.4373 114.12Z" fill="#3F3D56"/>
<path d="M109.963 13.5288C111.073 12.9806 111.337 11.2374 110.552 9.63526C109.767 8.03308 108.231 7.17862 107.121 7.72676C106.01 8.2749 105.747 10.0181 106.531 11.6202C107.316 13.2224 108.853 14.0769 109.963 13.5288Z" fill="#E6E6E6"/>
<path d="M114.461 34.1769C115.572 33.6287 115.835 31.8856 115.051 30.2834C114.266 28.6812 112.729 27.8268 111.619 28.3749C110.509 28.923 110.245 30.6662 111.03 32.2684C111.815 33.8706 113.351 34.725 114.461 34.1769Z" fill="#3F3D56"/>
<path d="M92.0555 13.2847C93.1658 12.7366 93.4295 10.9934 92.6446 9.39124C91.8597 7.78906 90.3233 6.93459 89.2131 7.48273C88.1028 8.03087 87.839 9.77405 88.624 11.3762C89.4089 12.9784 90.9452 13.8329 92.0555 13.2847Z" fill="#FF6584"/>
<path d="M82.643 6.7321C83.7099 6.37699 84.3754 5.4851 84.1293 4.74001C83.8832 3.99492 82.8188 3.67877 81.7518 4.03388C80.6849 4.38899 80.0194 5.28089 80.2655 6.02599C80.5116 6.77108 81.576 7.08721 82.643 6.7321Z" fill="#E6E6E6"/>
<path d="M69.3772 7.7782C70.4441 7.42308 71.1096 6.53119 70.8635 5.7861C70.6174 5.04101 69.553 4.72487 68.486 5.07998C67.4191 5.4351 66.7536 6.32698 66.9997 7.07208C67.2458 7.81717 68.3102 8.13331 69.3772 7.7782Z" fill="#3F3D56"/>
<path d="M98.4372 23.6832C99.5041 23.3281 100.17 22.4362 99.9235 21.6911C99.6774 20.946 98.613 20.6299 97.546 20.985C96.4791 21.3401 95.8136 22.232 96.0597 22.9771C96.3058 23.7222 97.3702 24.0383 98.4372 23.6832Z" fill="#E6E6E6"/>
<path d="M100.134 12.4493C101.201 12.0942 101.867 11.2023 101.62 10.4572C101.374 9.71213 100.31 9.396 99.243 9.75111C98.176 10.1062 97.5106 10.9981 97.7566 11.7432C98.0027 12.4883 99.0672 12.8044 100.134 12.4493Z" fill="#FF6584"/>
<path d="M113.361 23.0297C114.428 22.6746 115.094 21.7827 114.847 21.0376C114.601 20.2925 113.537 19.9764 112.47 20.3315C111.403 20.6866 110.738 21.5785 110.984 22.3236C111.23 23.0687 112.294 23.3848 113.361 23.0297Z" fill="#3F3D56"/>
<path d="M117.457 87.3125L131.527 86.5849L138.062 96.9513C138.062 96.9513 150.359 99.015 149.506 113.561C148.654 128.106 134.545 140.87 134.545 140.87L135.149 148.445L134.101 151.449L134.235 153.136L135.664 154.923L135.811 156.771L134.545 159.694L136.267 162.493L100.071 158.973L98.7473 154.133L100.678 151.533L99.5996 148.143L101.221 144.882L102.066 134.524C102.066 134.524 92.8168 120.575 103.435 110.068L107.697 102.795L112.465 96.9546L117.457 87.3125Z" fill="#CA181C"/>
<path d="M124.452 84.3854C132.686 84.3854 139.361 77.6845 139.361 69.4186C139.361 61.1527 132.686 54.4519 124.452 54.4519C116.217 54.4519 109.542 61.1527 109.542 69.4186C109.542 77.6845 116.217 84.3854 124.452 84.3854Z" fill="#FFB6B6"/>
<path d="M122.455 68.5114C121.171 68.5114 119.887 68.4751 118.603 68.4024L118.374 68.3895L118.404 68.1609C118.593 66.7323 118.487 65.2799 118.092 63.8945C117.42 65.472 116.422 66.8878 115.162 68.0473L115.091 68.1127L114.996 68.1022C111.51 67.7195 108.056 67.0872 104.661 66.2101L104.531 66.1766L104.505 66.0446C104.251 64.7944 104.12 63.5223 104.113 62.2465C104.113 58.261 105.552 54.9066 108.166 52.8012C111.011 50.5094 115.089 49.8046 119.653 50.8154H134.247C135.851 50.8173 137.39 51.4579 138.524 52.5968C139.659 53.7357 140.297 55.2798 140.299 56.8905V66.1681L140.14 66.2098C134.367 67.7328 128.424 68.5063 122.455 68.5114Z" fill="#2F2E41"/>
<path d="M20.7233 51.8635C20.07 52.1033 19.5381 52.5936 19.2444 53.2266C18.9507 53.8596 18.9191 54.5838 19.1565 55.2402L34.9006 98.6072C35.1395 99.263 35.6279 99.797 36.2584 100.092C36.889 100.387 37.6104 100.418 38.2642 100.18L99.3696 77.8246C100.023 77.5847 100.555 77.0945 100.849 76.4615C101.142 75.8284 101.174 75.1043 100.936 74.4479L85.1923 31.0809C84.9533 30.4251 84.465 29.8911 83.8344 29.5962C83.2039 29.3014 82.4825 29.2696 81.8286 29.508L20.7233 51.8635Z" fill="#CCCCCC"/>
<path d="M76.6275 83.754L39.2247 97.4379C38.5209 97.6944 37.7446 97.6603 37.0659 97.3429C36.3872 97.0256 35.8616 96.4509 35.6045 95.745L21.3247 56.4115C21.0691 55.705 21.1031 54.9257 21.4192 54.2443C21.7354 53.563 22.3078 53.0354 23.011 52.7772L80.6634 31.685C81.3672 31.4285 82.1436 31.4626 82.8223 31.78C83.501 32.0973 84.0266 32.672 84.2837 33.3779L91.1835 52.3835C93.3896 58.4816 93.0961 65.2091 90.3672 71.0902C87.6384 76.9713 82.6971 81.5256 76.6275 83.754Z" fill="white"/>
<path d="M49.7142 55.3388L40.826 58.5906C40.7145 58.6314 40.5962 58.6497 40.4776 58.6446C40.3591 58.6394 40.2428 58.6109 40.1352 58.5606C40.0277 58.5103 39.9311 58.4393 39.8509 58.3515C39.7707 58.2637 39.7085 58.1609 39.6679 58.0491C39.6273 57.9372 39.609 57.8183 39.6141 57.6994C39.6193 57.5804 39.6477 57.4636 39.6978 57.3556C39.7479 57.2477 39.8186 57.1507 39.9061 57.0702C39.9935 56.9897 40.0959 56.9272 40.2073 56.8865L49.0955 53.6347C49.3206 53.5524 49.5691 53.5631 49.7863 53.6647C50.0035 53.7663 50.1716 53.9503 50.2536 54.1762C50.3357 54.4022 50.3249 54.6517 50.2238 54.8697C50.1226 55.0877 49.9393 55.2565 49.7142 55.3388Z" fill="#CA181C"/>
<path d="M70.9037 51.5344L42.0912 62.0755C41.9797 62.1165 41.8612 62.135 41.7426 62.1299C41.624 62.1249 41.5075 62.0964 41.3999 62.0462C41.2922 61.9959 41.1955 61.9248 41.1152 61.837C41.0349 61.7492 40.9727 61.6464 40.932 61.5344C40.8914 61.4224 40.8731 61.3035 40.8783 61.1844C40.8834 61.0653 40.9119 60.9484 40.9621 60.8404C41.0123 60.7324 41.0832 60.6354 41.1708 60.5549C41.2584 60.4745 41.3609 60.4121 41.4725 60.3714L70.285 49.8303C70.3965 49.7895 70.5149 49.7712 70.6334 49.7763C70.7519 49.7815 70.8683 49.81 70.9758 49.8603C71.0834 49.9106 71.18 49.9817 71.2602 50.0694C71.3404 50.1572 71.4025 50.26 71.4432 50.3718C71.4838 50.4837 71.5021 50.6026 71.4969 50.7216C71.4918 50.8405 71.4634 50.9573 71.4133 51.0653C71.3632 51.1733 71.2924 51.2703 71.205 51.3507C71.1175 51.4312 71.0152 51.4937 70.9037 51.5344Z" fill="#CA181C"/>
<path d="M72.356 55.5347L43.5435 66.0758C43.432 66.1166 43.3136 66.1349 43.1951 66.1298C43.0766 66.1246 42.9602 66.0961 42.8527 66.0458C42.7451 65.9955 42.6485 65.9245 42.5683 65.8367C42.4881 65.7489 42.426 65.6462 42.3853 65.5343C42.3447 65.4224 42.3264 65.3035 42.3316 65.1846C42.3367 65.0656 42.3651 64.9488 42.4152 64.8408C42.4653 64.7329 42.5361 64.6359 42.6235 64.5554C42.7109 64.4749 42.8133 64.4125 42.9248 64.3717L71.7373 53.8306C71.9623 53.7486 72.2106 53.7596 72.4276 53.8612C72.6445 53.9628 72.8124 54.1467 72.8944 54.3725C72.9764 54.5983 72.9657 54.8475 72.8648 55.0654C72.7638 55.2834 72.5808 55.4521 72.356 55.5347Z" fill="#CA181C"/>
<path d="M73.8083 59.535L44.9957 70.0761C44.8842 70.117 44.7658 70.1355 44.6471 70.1305C44.5285 70.1254 44.4121 70.097 44.3044 70.0467C44.1967 69.9964 44.1 69.9254 44.0197 69.8376C43.9395 69.7497 43.8772 69.6469 43.8366 69.5349C43.7959 69.4229 43.7776 69.304 43.7828 69.1849C43.788 69.0659 43.8165 68.949 43.8667 68.841C43.9169 68.733 43.9878 68.6359 44.0754 68.5555C44.1629 68.475 44.2654 68.4126 44.377 68.3719L73.1896 57.8308C73.301 57.7901 73.4194 57.7717 73.5379 57.7769C73.6565 57.782 73.7728 57.8105 73.8804 57.8608C73.9879 57.9111 74.0845 57.9822 74.1647 58.0699C74.2449 58.1577 74.3071 58.2605 74.3477 58.3724C74.3883 58.4843 74.4066 58.6031 74.4015 58.7221C74.3963 58.8411 74.3679 58.9579 74.3178 59.0658C74.2678 59.1738 74.197 59.2708 74.1095 59.3513C74.0221 59.4318 73.9197 59.4942 73.8083 59.535Z" fill="#CA181C"/>
<path d="M75.2605 63.5352L46.448 74.0763C46.2229 74.1587 45.9744 74.1479 45.7572 74.0463C45.54 73.9448 45.3719 73.7608 45.2898 73.5348C45.2078 73.3088 45.2185 73.0594 45.3197 72.8413C45.4209 72.6233 45.6042 72.4546 45.8293 72.3722L74.6418 61.8311C74.7533 61.7903 74.8717 61.772 74.9902 61.7771C75.1087 61.7823 75.2251 61.8108 75.3326 61.8611C75.4402 61.9114 75.5368 61.9824 75.617 62.0702C75.6972 62.158 75.7593 62.2607 75.8 62.3726C75.8406 62.4845 75.8588 62.6034 75.8537 62.7223C75.8486 62.8413 75.8202 62.9581 75.7701 63.0661C75.72 63.174 75.6492 63.271 75.5618 63.3515C75.4743 63.432 75.372 63.4944 75.2605 63.5352Z" fill="#CA181C"/>
<path d="M166.683 74.6448L150.908 112.541C150.235 114.144 148.96 115.418 147.36 116.086C145.76 116.755 143.962 116.766 142.354 116.115C141.522 115.779 140.768 115.276 140.136 114.637C139.504 113.999 139.008 113.237 138.679 112.4C138.35 111.563 138.194 110.667 138.221 109.767C138.248 108.867 138.457 107.982 138.836 107.166L156.425 68.3063L166.121 44.2411C165.283 43.4023 164.723 42.3248 164.516 41.1552C164.309 39.9855 164.466 38.7804 164.966 37.7035C165.465 36.6265 166.283 35.7301 167.308 35.1358C168.332 34.5416 169.514 34.2785 170.693 34.3821C171.872 34.4857 172.99 34.9512 173.896 35.7151C174.803 36.4791 175.452 37.5046 175.758 38.6523C176.063 39.7999 176.009 41.0142 175.603 42.13C175.197 43.2458 174.459 44.209 173.489 44.8889L166.683 74.6448Z" fill="#FFB6B6"/>
</svg>
