<svg width="48" height="48" viewBox="0 0 48 48" fill="none" xmlns="http://www.w3.org/2000/svg">
<circle cx="24" cy="24" r="24" fill="#CA181C" fill-opacity="0.16"/>
<path d="M16 32C15.45 32 14.9793 31.8043 14.588 31.413C14.196 31.021 14 30.55 14 30V18C14 17.45 14.196 16.9793 14.588 16.588C14.9793 16.196 15.45 16 16 16H32C32.55 16 33.021 16.196 33.413 16.588C33.8043 16.9793 34 17.45 34 18V30C34 30.55 33.8043 31.021 33.413 31.413C33.021 31.8043 32.55 32 32 32H16ZM24 25L32 20V18L24 23L16 18V20L24 25Z" fill="#CA181C"/>
</svg>
