<svg width="209" height="195" viewBox="0 0 209 195" fill="none" xmlns="http://www.w3.org/2000/svg">
<path d="M140.881 138.238H65.9067C59.6047 138.238 54.4778 133.108 54.4778 126.802V51.7812C54.4778 45.4753 59.6047 40.3451 65.9067 40.3451H140.881C147.183 40.3451 152.31 45.4753 152.31 51.7812V126.802C152.31 133.108 147.183 138.238 140.881 138.238ZM65.9067 42.1749C60.6046 42.1749 56.3064 46.4758 56.3064 51.7812V126.802C56.3064 132.107 60.6046 136.408 65.9067 136.408H118.424C136.129 136.408 150.481 122.047 150.481 104.331V51.7812C150.481 46.4758 146.183 42.1749 140.881 42.1749L65.9067 42.1749Z" fill="#F2F2F2"/>
<path d="M73.9896 49.9762C70.4411 49.9762 67.5544 52.8647 67.5544 56.4154V66.4941C67.5544 70.0447 70.4411 72.9332 73.9896 72.9332H84.062C87.6104 72.9332 90.4971 70.0447 90.4971 66.4941V56.4154C90.4971 52.8647 87.6104 49.9762 84.062 49.9762H73.9896Z" fill="#F2F2F2"/>
<path d="M73.9896 78.349C70.4411 78.349 67.5544 81.2375 67.5544 84.7882V94.8668C67.5544 98.4175 70.4411 101.306 73.9896 101.306H84.062C87.6104 101.306 90.4971 98.4175 90.4971 94.8668V84.7882C90.4971 81.2375 87.6104 78.349 84.062 78.349H73.9896Z" fill="#F2F2F2"/>
<path d="M73.9896 106.722C70.4411 106.722 67.5544 109.61 67.5544 113.161V123.24C67.5544 126.79 70.4411 129.679 73.9896 129.679H84.062C87.6104 129.679 90.4971 126.79 90.4971 123.24V113.161C90.4971 109.61 87.6104 106.722 84.062 106.722H73.9896Z" fill="#F2F2F2"/>
<path d="M80.669 25.3865C76.1979 25.3865 72.5605 29.0261 72.5605 33.5V46.1994C72.5605 50.6734 76.1979 54.313 80.669 54.313H93.3605C97.8317 54.313 101.469 50.6734 101.469 46.1994V33.5C101.469 29.0261 97.8317 25.3865 93.3605 25.3865H80.669Z" fill="#CCCCCC"/>
<path d="M122.453 60.8761C117.981 60.8761 114.344 64.5157 114.344 68.9896V81.6891C114.344 86.163 117.981 89.8026 122.453 89.8026H135.144C139.615 89.8026 143.253 86.163 143.253 81.6891V68.9896C143.253 64.5157 139.615 60.8761 135.144 60.8761H122.453Z" fill="#CCCCCC"/>
<path d="M104.287 188.701L101.709 188.679L100.568 178.496L104.373 178.528L104.287 188.701Z" fill="#A0616A"/>
<path d="M96.0286 192.803C96.023 193.438 96.5346 193.961 97.1715 193.967L102.298 194.01L103.195 192.19L103.525 194.019L105.459 194.037L104.971 187.511L104.298 187.467L101.553 187.277L100.667 187.218L100.652 189.064L96.5337 191.859C96.2204 192.072 96.0317 192.425 96.0286 192.803Z" fill="#CCCCCC"/>
<path d="M117.405 188.701L114.827 188.679L113.686 178.496L117.491 178.528L117.405 188.701Z" fill="#A0616A"/>
<path d="M109.147 192.803C109.141 193.438 109.653 193.961 110.29 193.967L115.416 194.01L116.313 192.19L116.643 194.019L118.577 194.037L118.089 187.511L117.416 187.467L114.671 187.277L113.785 187.218L113.77 189.064L109.652 191.859C109.339 192.072 109.15 192.425 109.147 192.803Z" fill="#CCCCCC"/>
<path d="M94.1697 106.371L104.621 106.701L114.522 108.903C114.522 108.903 113.532 110.114 116.832 113.416C116.832 113.416 121.233 121.122 118.152 128.607L116.832 158.549C116.832 158.549 120.681 179.656 117.74 186.373L113.853 186.617L107.276 158.792L104.071 128.827L102.531 158.329C102.531 158.329 108.423 178.578 104.702 186.617L100.492 186.374L93.2896 158.329C93.2896 158.329 90.2092 125.965 90.6493 119.801C91.0893 113.636 94.1697 106.371 94.1697 106.371Z" fill="#2F2E41"/>
<path d="M129.267 59.058C127.838 59.4282 126.98 60.8872 127.35 62.3168C127.519 62.9718 127.919 63.5047 128.438 63.8568L128.438 63.8604L128.235 68.7726L131.992 70.5123L132.291 62.9532L132.265 62.954C132.591 62.3733 132.704 61.6718 132.524 60.9763C132.154 59.5467 130.696 58.6879 129.267 59.058Z" fill="#A0616A"/>
<path d="M108.27 76.5894C107.481 75.8067 107.023 74.7454 107.006 73.5914C106.983 72.0433 107.759 70.6382 109.08 69.8328C110.602 68.9053 112.505 68.9992 113.929 70.0716L125.726 78.9593L127.828 66.1559L132.341 67.6095L131.264 84.2814C131.188 85.4476 130.53 86.4749 129.502 87.0295C128.474 87.5841 127.254 87.5702 126.239 86.9923L109.191 77.2869C108.848 77.0919 108.54 76.8568 108.27 76.5894Z" fill="#CA181C"/>
<path d="M90.2824 51.8964C91.0365 53.1658 90.6195 54.8066 89.3509 55.5612C88.7696 55.9069 88.111 56.004 87.4948 55.8884L87.4923 55.8911L84.1799 59.5223L80.2881 58.1111L85.3938 52.5318L85.4118 52.5508C85.5891 51.9089 86.0027 51.3314 86.62 50.9643C87.8885 50.2097 89.5283 50.627 90.2824 51.8964Z" fill="#A0616A"/>
<path d="M91.7131 78.985L72.7775 73.8669C71.6501 73.5621 70.7742 72.7128 70.4344 71.5947C70.0945 70.4766 70.3497 69.2831 71.1167 68.4018L82.0826 55.8038L86.3102 57.9508L78.7943 68.5239L93.4253 70.5232C95.1908 70.7645 96.6084 72.0386 97.0366 73.7695C97.4084 75.2725 96.9704 76.8165 95.8648 77.8997C95.0406 78.7072 93.9688 79.1383 92.8576 79.1381C92.478 79.1381 92.0935 79.0878 91.7131 78.985Z" fill="#CA181C"/>
<path d="M118.709 110.776L92.2301 111.991C91.5028 110.886 91.6998 109.224 92.7183 107.144C96.5637 99.2874 93.6432 84.4248 91.6786 76.6858C91.1274 74.5144 92.6071 72.3558 94.8349 72.1328L97.3316 71.883L99.6394 64.8337H107.722L111.075 68.6669L116.766 72.1261C115.73 82.8021 111.317 97.8775 117.604 105.438C118.979 107.091 119.369 108.879 118.709 110.776Z" fill="#CA181C"/>
<path d="M102.653 64.9965C107.001 64.9965 110.525 61.4696 110.525 57.1189C110.525 52.7682 107.001 49.2412 102.653 49.2412C98.3046 49.2412 94.7799 52.7682 94.7799 57.1189C94.7799 61.4696 98.3046 64.9965 102.653 64.9965Z" fill="#A0616A"/>
<path d="M111.561 52.0764C112.657 48.0804 100.719 44.6538 98.3986 47.8718C98.076 47.4143 96.8839 47.1364 96.3369 47.2767C95.7899 47.4171 95.3299 47.7679 94.8811 48.1075C94.2639 48.5819 93.6244 49.0731 93.2457 49.7551C92.8642 50.4344 92.8053 51.3607 93.3186 51.9501C93.7254 52.4188 94.4401 54.9097 95.0516 55.0332C95.478 55.1202 95.837 55.1904 96.1456 55.2409C96.4205 54.8395 97.1215 54.3353 97.071 53.8497C97.4861 54.1248 97.3345 54.6087 97.2508 55.1033C96.9721 56.7503 90.6927 69.4998 94.2892 65.7428C94.6455 65.9533 95.0858 66.1498 95.5936 66.3294C96.4547 65.0299 97.1616 63.4974 97.6272 61.8947L97.6305 61.9243C97.7909 63.3171 98.8081 64.4599 100.154 64.85C105.552 66.415 109.919 64.1186 111.422 59.9775C110.872 58.8604 110.632 58.9817 110.681 58.9485C111.368 58.4855 112.311 58.7883 112.606 59.5622C112.693 59.7904 112.772 59.9853 112.841 60.1318C113.623 57.3306 114.554 57.7349 111.561 52.0764Z" fill="#2F2E41"/>
<path d="M107.837 49.1772L107.285 46.3562C107.239 46.1191 107.195 45.8618 107.302 45.6451C107.439 45.3667 107.792 45.2513 108.099 45.2957C108.406 45.34 108.636 45.6207 108.942 45.6748C110.004 45.8627 111.408 44.8128 111.789 47.4688C111.947 48.5762 113.713 48.6932 114.303 49.6436C114.893 50.5941 114.965 51.9659 114.16 52.7424C113.518 53.3625 112.485 53.4341 111.65 53.1173C110.815 52.8005 110.145 52.1607 109.56 51.4859C108.975 50.8111 108.445 50.081 107.77 49.4962" fill="#2F2E41"/>
<path d="M111.982 53.4679C109.828 53.1668 108.359 52.3828 107.617 51.138C106.647 49.5085 107.297 47.7142 107.325 47.6386L107.78 47.808C107.774 47.8245 107.185 49.467 108.037 50.8933C108.701 52.0028 110.051 52.7071 112.049 52.9865L111.982 53.4679Z" fill="#CA181C"/>
<path d="M188.486 188.443C189.267 188.492 189.699 187.521 189.108 186.955L189.049 186.721C189.057 186.702 189.065 186.684 189.073 186.665C189.863 184.78 192.54 184.793 193.323 186.681C194.018 188.356 194.903 190.034 195.121 191.805C195.218 192.587 195.175 193.384 195.001 194.151C196.63 190.591 197.487 186.703 197.487 182.794C197.487 181.812 197.433 180.829 197.323 179.85C197.233 179.048 197.109 178.252 196.947 177.462C196.076 173.196 194.188 169.133 191.465 165.739C190.156 165.023 189.065 163.904 188.406 162.562C188.169 162.079 187.983 161.558 187.895 161.028C188.044 161.047 188.457 158.778 188.345 158.638C188.552 158.323 188.924 158.166 189.15 157.859C190.278 156.329 191.831 156.596 192.642 158.675C194.375 159.55 194.391 161.001 193.328 162.396C192.652 163.284 192.559 164.485 191.966 165.436C192.027 165.514 192.09 165.59 192.151 165.668C193.271 167.105 194.239 168.649 195.055 170.271C194.825 168.468 195.165 166.296 195.746 164.896C196.407 163.3 197.646 161.957 198.737 160.578C200.047 158.921 202.734 159.644 202.965 161.744C202.967 161.764 202.969 161.785 202.971 161.805C202.809 161.896 202.651 161.994 202.496 162.096C201.611 162.682 201.917 164.053 202.965 164.215L202.989 164.219C202.93 164.803 202.83 165.382 202.683 165.951C204.083 171.367 201.061 173.34 196.747 173.428C196.652 173.477 196.559 173.526 196.464 173.572C196.901 174.804 197.25 176.067 197.509 177.347C197.741 178.479 197.902 179.622 197.992 180.771C198.105 182.22 198.095 183.676 197.973 185.122L197.98 185.071C198.29 183.478 199.155 181.99 200.41 180.959C202.28 179.422 204.921 178.856 206.939 177.621C207.91 177.026 209.154 177.794 208.984 178.921L208.976 178.975C208.676 179.097 208.383 179.239 208.099 179.398C207.937 179.489 207.779 179.586 207.624 179.689C206.739 180.274 207.045 181.646 208.093 181.808L208.117 181.812C208.134 181.814 208.148 181.816 208.165 181.819C207.65 183.043 206.932 184.179 206.034 185.159C205.159 189.887 201.4 190.335 197.38 188.959H197.377C196.938 190.874 196.295 192.746 195.47 194.53H188.657C188.633 194.454 188.611 194.376 188.589 194.3C189.219 194.339 189.854 194.302 190.474 194.188C189.968 193.567 189.463 192.941 188.957 192.321C188.945 192.309 188.936 192.296 188.926 192.284C188.669 191.966 188.411 191.651 188.154 191.334L188.154 191.333C188.138 190.358 188.255 189.386 188.486 188.443Z" fill="#F2F2F2"/>
<path d="M0 194.55C0 194.8 0.200388 195 0.449924 195H208.497C208.747 195 208.947 194.8 208.947 194.55C208.947 194.3 208.747 194.1 208.497 194.1H0.449924C0.200388 194.1 0 194.3 0 194.55Z" fill="#CCCCCC"/>
<path d="M83.7812 39.3125C82.859 39.3123 81.9494 39.5281 81.1256 39.9427C80.3017 40.3573 79.5864 40.9591 79.037 41.6999C78.4876 42.4407 78.1193 43.2999 77.9618 44.2086C77.8042 45.1173 77.8617 46.0504 78.1296 46.9329L71.3125 53.75V57.6875H75.25L82.0671 50.8704C82.8795 51.117 83.7355 51.1855 84.5767 51.0714C85.418 50.9572 86.2248 50.663 86.9421 50.2089C87.6594 49.7548 88.2703 49.1513 88.7333 48.4397C89.1963 47.7281 89.5004 46.925 89.625 46.0852C89.7495 45.2454 89.6916 44.3887 89.455 43.5733C89.2185 42.7579 88.809 42.0031 88.2544 41.3604C87.6998 40.7176 87.0131 40.2019 86.2412 39.8485C85.4693 39.4951 84.6302 39.3123 83.7812 39.3125ZM83.7812 49.8125C83.3294 49.8123 82.8801 49.7455 82.4477 49.6143L81.695 49.3859L81.1392 49.9418L79.0517 52.0293L78.1467 51.125L77.2187 52.0529L78.1237 52.9579L77.0829 53.9987L76.1779 53.0938L75.25 54.0217L76.155 54.9267L74.7066 56.375H72.625V54.2934L79.0576 47.8608L79.6141 47.305L79.3857 46.5522C79.1052 45.6276 79.1234 44.638 79.4378 43.7243C79.7521 42.8106 80.3466 42.0193 81.1366 41.4629C81.9266 40.9065 82.8719 40.6135 83.8381 40.6253C84.8043 40.6372 85.7422 40.9535 86.5183 41.5291C87.2944 42.1048 87.8692 42.9105 88.161 43.8316C88.4527 44.7528 88.4466 45.7425 88.1434 46.66C87.8403 47.5775 87.2555 48.376 86.4724 48.942C85.6892 49.508 84.7475 49.8126 83.7812 49.8125Z" fill="#CA181C"/>
<path d="M84.4375 45.875C85.1624 45.875 85.75 45.2874 85.75 44.5625C85.75 43.8376 85.1624 43.25 84.4375 43.25C83.7126 43.25 83.125 43.8376 83.125 44.5625C83.125 45.2874 83.7126 45.875 84.4375 45.875Z" fill="#CA181C"/>
<path d="M81.7812 79.3125C80.859 79.3123 79.9494 79.5281 79.1256 79.9427C78.3017 80.3573 77.5864 80.9591 77.037 81.6999C76.4876 82.4407 76.1193 83.2999 75.9618 84.2086C75.8042 85.1173 75.8617 86.0504 76.1296 86.9329L69.3125 93.75V97.6875H73.25L80.0671 90.8704C80.8795 91.117 81.7355 91.1855 82.5767 91.0714C83.418 90.9572 84.2248 90.663 84.9421 90.2089C85.6594 89.7548 86.2703 89.1513 86.7333 88.4397C87.1963 87.7281 87.5004 86.925 87.625 86.0852C87.7495 85.2454 87.6916 84.3887 87.455 83.5733C87.2185 82.7579 86.809 82.0031 86.2544 81.3604C85.6998 80.7176 85.0131 80.2019 84.2412 79.8485C83.4693 79.4951 82.6302 79.3123 81.7812 79.3125ZM81.7812 89.8125C81.3294 89.8123 80.8801 89.7455 80.4477 89.6143L79.695 89.3859L79.1392 89.9418L77.0517 92.0293L76.1467 91.125L75.2187 92.0529L76.1237 92.9579L75.0829 93.9987L74.1779 93.0938L73.25 94.0217L74.155 94.9267L72.7066 96.375H70.625V94.2934L77.0576 87.8608L77.6141 87.305L77.3857 86.5522C77.1052 85.6276 77.1234 84.638 77.4378 83.7243C77.7521 82.8106 78.3466 82.0193 79.1366 81.4629C79.9266 80.9065 80.8719 80.6135 81.8381 80.6253C82.8043 80.6372 83.7422 80.9535 84.5183 81.5291C85.2944 82.1048 85.8692 82.9105 86.161 83.8316C86.4527 84.7528 86.4466 85.7425 86.1434 86.66C85.8403 87.5775 85.2555 88.376 84.4724 88.942C83.6892 89.508 82.7475 89.8126 81.7812 89.8125Z" fill="#CA181C"/>
<path d="M82.4375 85.875C83.1624 85.875 83.75 85.2874 83.75 84.5625C83.75 83.8376 83.1624 83.25 82.4375 83.25C81.7126 83.25 81.125 83.8376 81.125 84.5625C81.125 85.2874 81.7126 85.875 82.4375 85.875Z" fill="#CA181C"/>
<path d="M80.7812 108.313C79.859 108.312 78.9494 108.528 78.1256 108.943C77.3017 109.357 76.5864 109.959 76.037 110.7C75.4876 111.441 75.1193 112.3 74.9618 113.209C74.8042 114.117 74.8617 115.05 75.1296 115.933L68.3125 122.75V126.688H72.25L79.0671 119.87C79.8795 120.117 80.7355 120.186 81.5767 120.071C82.418 119.957 83.2248 119.663 83.9421 119.209C84.6594 118.755 85.2703 118.151 85.7333 117.44C86.1963 116.728 86.5004 115.925 86.625 115.085C86.7495 114.245 86.6916 113.389 86.455 112.573C86.2185 111.758 85.809 111.003 85.2544 110.36C84.6998 109.718 84.0131 109.202 83.2412 108.849C82.4693 108.495 81.6302 108.312 80.7812 108.313ZM80.7812 118.812C80.3294 118.812 79.8801 118.745 79.4477 118.614L78.695 118.386L78.1392 118.942L76.0517 121.029L75.1467 120.125L74.2187 121.053L75.1237 121.958L74.0829 122.999L73.1779 122.094L72.25 123.022L73.155 123.927L71.7066 125.375H69.625V123.293L76.0576 116.861L76.6141 116.305L76.3857 115.552C76.1052 114.628 76.1234 113.638 76.4378 112.724C76.7521 111.811 77.3466 111.019 78.1366 110.463C78.9266 109.907 79.8719 109.613 80.8381 109.625C81.8043 109.637 82.7422 109.953 83.5183 110.529C84.2944 111.105 84.8692 111.91 85.161 112.832C85.4527 113.753 85.4466 114.743 85.1434 115.66C84.8403 116.577 84.2555 117.376 83.4724 117.942C82.6892 118.508 81.7475 118.813 80.7812 118.812Z" fill="#CA181C"/>
<path d="M81.4375 114.875C82.1624 114.875 82.75 114.287 82.75 113.562C82.75 112.838 82.1624 112.25 81.4375 112.25C80.7126 112.25 80.125 112.838 80.125 113.562C80.125 114.287 80.7126 114.875 81.4375 114.875Z" fill="#CA181C"/>
<path d="M92.7327 37.2947C93.3672 36.1242 94.5867 35.4337 95.2953 34.3979C96.0451 33.3116 95.6249 31.2821 93.499 31.2821C92.1065 31.2821 91.4225 32.36 91.1341 33.2526L89 32.3347C89.585 30.5411 91.1753 29 93.4908 29C95.4271 29 96.7538 29.9011 97.4294 31.0295C98.0062 31.9979 98.3441 33.8084 97.4542 35.1558C96.4654 36.6463 95.5178 37.1011 95.0069 38.0611C94.8009 38.4484 94.7185 38.7011 94.7185 39.9474H92.3372C92.3289 39.2905 92.2301 38.2211 92.7327 37.2947ZM95.147 43.3158C95.147 44.2421 94.4054 45 93.499 45C92.5926 45 91.851 44.2421 91.851 43.3158C91.851 42.3895 92.5926 41.6316 93.499 41.6316C94.4054 41.6316 95.147 42.3895 95.147 43.3158Z" fill="#CA181C"/>
</svg>
