<svg width="23" height="23" viewBox="0 0 23 23" fill="none" xmlns="http://www.w3.org/2000/svg">
<path fill-rule="evenodd" clip-rule="evenodd" d="M10.25 2.66672C8.23877 2.66672 6.30992 3.46567 4.88777 4.88783C3.46562 6.30998 2.66666 8.23883 2.66666 10.2501C2.66666 12.2613 3.46562 14.1901 4.88777 15.6123C6.30992 17.0344 8.23877 17.8334 10.25 17.8334C12.2612 17.8334 14.1901 17.0344 15.6122 15.6123C17.0344 14.1901 17.8333 12.2613 17.8333 10.2501C17.8333 8.23883 17.0344 6.30998 15.6122 4.88783C14.1901 3.46567 12.2612 2.66672 10.25 2.66672ZM0.333328 10.2501C0.333463 8.66874 0.711753 7.11039 1.43664 5.70502C2.16152 4.29964 3.21198 3.08799 4.50037 2.17116C5.78877 1.25433 7.27773 0.658896 8.84305 0.434545C10.4084 0.210193 12.0046 0.363426 13.4987 0.88146C14.9927 1.39949 16.3412 2.26731 17.4317 3.41249C18.5221 4.55768 19.3229 5.94704 19.7672 7.46465C20.2115 8.98226 20.2864 10.5841 19.9857 12.1366C19.685 13.689 19.0175 15.1471 18.0387 16.3891L22.2993 20.6497C22.5118 20.8698 22.6294 21.1645 22.6268 21.4704C22.6241 21.7762 22.5014 22.0689 22.2851 22.2852C22.0688 22.5015 21.7762 22.6242 21.4703 22.6268C21.1644 22.6295 20.8697 22.5119 20.6497 22.2994L16.389 18.0387C14.9267 19.1914 13.1695 19.9091 11.3183 20.1097C9.46722 20.3103 7.59702 19.9856 5.92177 19.173C4.24652 18.3603 2.83391 17.0924 1.8456 15.5144C0.857286 13.9364 0.333203 12.112 0.333328 10.2501ZM9.08333 6.16672C9.08333 5.8573 9.20624 5.56055 9.42504 5.34176C9.64383 5.12297 9.94058 5.00005 10.25 5.00005C11.6424 5.00005 12.9777 5.55317 13.9623 6.53774C14.9469 7.52231 15.5 8.85766 15.5 10.2501C15.5 10.5595 15.3771 10.8562 15.1583 11.075C14.9395 11.2938 14.6427 11.4167 14.3333 11.4167C14.0239 11.4167 13.7272 11.2938 13.5084 11.075C13.2896 10.8562 13.1667 10.5595 13.1667 10.2501C13.1667 9.4765 12.8594 8.73464 12.3124 8.18766C11.7654 7.64068 11.0235 7.33338 10.25 7.33338C9.94058 7.33338 9.64383 7.21047 9.42504 6.99168C9.20624 6.77288 9.08333 6.47614 9.08333 6.16672Z" fill="#CA181C"/>
</svg>
