<svg width="64" height="64" viewBox="0 0 64 64" fill="none" xmlns="http://www.w3.org/2000/svg">
<path d="M33.224 4.42804C32.8691 4.15136 32.432 4.0011 31.982 4.0011C31.532 4.0011 31.0949 4.15136 30.74 4.42804L2 26.838L4.486 29.982L8 27.242V52C8.00211 53.0603 8.42422 54.0764 9.17391 54.8261C9.9236 55.5758 10.9398 55.9979 12 56H52C53.0602 55.9979 54.0764 55.5758 54.8261 54.8261C55.5758 54.0764 55.9979 53.0603 56 52V27.26L59.514 30L62 26.856L33.224 4.42804ZM36 52H28V36H36V52ZM40 52V36C39.9989 34.9395 39.5772 33.9227 38.8273 33.1728C38.0773 32.4229 37.0605 32.0011 36 32H28C26.9395 32.0011 25.9227 32.4229 25.1727 33.1728C24.4228 33.9227 24.0011 34.9395 24 36V52H12V24.124L32 8.54404L52 24.144V52H40Z" fill="#CA181C"/>
</svg>
