<svg width="28" height="28" viewBox="0 0 28 28" fill="none" xmlns="http://www.w3.org/2000/svg">
<path d="M19.6438 5.25C20.2808 5.24946 20.9116 5.37611 21.4991 5.62253C22.0866 5.86894 22.6189 6.23016 23.065 6.685C23.9841 7.61809 24.4993 8.87526 24.4993 10.185C24.4993 11.4947 23.9841 12.7519 23.065 13.685L14 22.8638L4.935 13.685C4.01589 12.7519 3.50069 11.4947 3.50069 10.185C3.50069 8.87526 4.01589 7.61809 4.935 6.685C5.38133 6.23048 5.91376 5.86946 6.50117 5.62301C7.08859 5.37656 7.71923 5.24963 8.35625 5.24963C8.99327 5.24963 9.62391 5.37656 10.2113 5.62301C10.7987 5.86946 11.3312 6.23048 11.7775 6.685L14 8.96L16.2138 6.7025C16.6585 6.24224 17.1914 5.87638 17.7808 5.62681C18.3701 5.37724 19.0037 5.24908 19.6438 5.25ZM19.6438 3.5C18.7737 3.49926 17.9122 3.67225 17.1099 4.00882C16.3075 4.34538 15.5804 4.83875 14.9713 5.46L14 6.44L13.0288 5.46C12.4188 4.83987 11.6916 4.34736 10.8894 4.01117C10.0872 3.67498 9.22606 3.50184 8.35625 3.50184C7.48645 3.50184 6.62534 3.67498 5.82314 4.01117C5.02093 4.34736 4.29367 4.83987 3.68375 5.46C2.4429 6.72317 1.74763 8.42307 1.74763 10.1938C1.74763 11.9644 2.4429 13.6643 3.68375 14.9275L14 25.375L24.3163 14.9275C25.5571 13.6643 26.2524 11.9644 26.2524 10.1938C26.2524 8.42307 25.5571 6.72317 24.3163 5.46C23.7065 4.83954 22.9793 4.34669 22.1771 4.01018C21.3749 3.67367 20.5137 3.50024 19.6438 3.5Z" fill="#CA181C"/>
</svg>
