<svg width="28" height="28" viewBox="0 0 28 28" fill="none" xmlns="http://www.w3.org/2000/svg">
<g clip-path="url(#clip0_111_44)">
<path d="M27.0667 27.0667L19.6 19.6M12.1333 23.3333C10.6625 23.3333 9.20613 23.0437 7.84728 22.4808C6.48843 21.9179 5.25375 21.093 4.21374 20.0529C3.17372 19.0129 2.34874 17.7783 1.78588 16.4194C1.22303 15.0606 0.933334 13.6042 0.933334 12.1333C0.933334 10.6625 1.22303 9.20614 1.78588 7.8473C2.34874 6.48845 3.17372 5.25377 4.21374 4.21375C5.25375 3.17374 6.48843 2.34875 7.84728 1.7859C9.20613 1.22305 10.6625 0.93335 12.1333 0.93335C15.1038 0.93335 17.9525 2.11335 20.0529 4.21375C22.1533 6.31416 23.3333 9.16292 23.3333 12.1333C23.3333 15.1038 22.1533 17.9525 20.0529 20.0529C17.9525 22.1534 15.1038 23.3333 12.1333 23.3333Z" stroke="#CA181C" stroke-width="1.86667"/>
</g>
<defs>
<clipPath id="clip0_111_44">
<rect width="28" height="28" fill="white"/>
</clipPath>
</defs>
</svg>
