<svg width="181" height="199" viewBox="0 0 181 199" fill="none" xmlns="http://www.w3.org/2000/svg">
<path d="M45.6509 60.2679C44.4339 60.7308 43.1911 61.1232 41.9288 61.4432C40.2614 61.8489 39.32 62.037 37.7106 61.4134C37.6541 61.3915 37.6001 61.3698 37.5493 61.3485C34.4988 60.0535 31.8912 57.9011 30.0438 55.1531C28.1965 52.4052 27.189 49.1803 27.1442 45.871C27.1361 45.7575 27.1361 45.6381 27.1361 45.5217C27.1345 44.9608 27.1614 44.4003 27.2166 43.8421C27.2871 43.0818 27.4089 42.3271 27.5812 41.5832L27.5651 41.5803C26.2621 40.25 25.7607 38.4277 25.927 36.5968C26.0408 35.3554 26.4354 34.1561 27.0809 33.0891C27.7265 32.0222 28.6061 31.1154 29.6536 30.4372C31.2952 29.4067 33.1462 28.7543 35.072 28.5276C35.5891 28.4681 36.1091 28.438 36.6297 28.4374H41.5199C42.5299 28.2013 43.5559 28.0398 44.5897 27.9542H44.5977C54.4398 27.1391 62.2014 33.6538 61.4775 41.5803C61.4721 41.589 61.4641 41.5977 61.4587 41.6065C61.2496 41.9471 61.0646 42.2702 60.9011 42.5787C60.7429 42.8669 60.6089 43.1435 60.4936 43.4054C59.5954 45.4315 63.8636 76.8651 62.3328 77.3424C61.4614 77.6132 57.9493 54.2225 58.5793 58.6704C59.3729 64.2507 50.1851 58.5944 45.6509 60.2679Z" fill="#2F2E41"/>
<path d="M60.4775 117.091L74.1206 146.111L21.6388 140.804L32.5941 112.945L60.4775 117.091Z" fill="#FFB6B6"/>
<path d="M87.8649 175.275C78.7386 178.308 69.1211 179.594 59.517 179.066L55.3407 172.304C55.3407 172.304 55.1659 174.822 54.905 178.672C50.3333 178.143 45.8211 177.188 41.4276 175.819C33.0958 173.218 25.2856 169.187 17.3687 165.47C15.7652 155.926 15.1635 141.209 24.0289 132.641L71.7466 141.372C71.7466 141.372 79.4026 147.089 77.3545 149.137C75.3064 151.182 74.9892 150.866 76.3349 152.209C77.6805 153.553 80.5882 155.349 80.6179 156.524C80.6297 156.983 83.8931 165.302 87.8649 175.275Z" fill="#2F2E41"/>
<path d="M52.1448 61.0133L40.6164 61.8164L33.1651 69.0055L30.5555 69.4705C28.2098 69.8881 26.0991 71.1506 24.6237 73.0186C23.1483 74.8867 22.4107 77.2303 22.5508 79.6052C23.0876 88.6855 24.2895 102.253 26.8015 106.655C30.6965 113.48 33.9138 111.339 30.6965 113.48C27.4793 115.622 25.3193 113.939 26.8015 117.323C28.2836 120.708 24.7983 125.049 24.7983 125.049L23.4108 126.434L24.8824 127.036L71.7721 133.128C71.7721 133.128 67.7177 114.927 70.2532 110.456C72.7888 105.985 78.9366 92.4697 73.4498 87.1813L68.085 68.3315L58.8569 65.6141L52.1448 61.0133Z" fill="#CA181C"/>
<path d="M121.932 135.716C121.16 135.691 120.403 135.5 119.713 135.155C119.023 134.809 118.416 134.319 117.935 133.716C117.454 133.114 117.109 132.414 116.925 131.666C116.741 130.917 116.722 130.138 116.869 129.381L94.8745 114.508L97.4988 107.423L123.493 125.278C124.75 125.62 125.838 126.411 126.55 127.501C127.262 128.59 127.548 129.903 127.356 131.189C127.164 132.476 126.505 133.647 125.505 134.482C124.506 135.316 123.234 135.755 121.932 135.716Z" fill="#FFB6B6"/>
<path d="M59.8071 67.4413L56.611 68.7049L73.6605 101.952L108.956 125.973L114.043 117.388L87.1764 94.217L76.42 73.6199C74.9062 70.7212 72.3704 68.4855 69.3022 67.3444C66.2341 66.2033 62.8513 66.2378 59.8071 67.4413Z" fill="#CA181C"/>
<path d="M45.7807 58.0894C52.1741 58.0894 57.3569 52.9146 57.3569 46.5312C57.3569 40.1477 52.1741 34.9729 45.7807 34.9729C39.3874 34.9729 34.2045 40.1477 34.2045 46.5312C34.2045 52.9146 39.3874 58.0894 45.7807 58.0894Z" fill="#FFB6B6"/>
<path d="M55.8474 41.6436C55.6544 41.7453 55.464 41.839 55.271 41.9327C55.0699 42.0291 54.8688 42.1254 54.6651 42.2164C50.791 43.9698 47.6354 44.1652 45.7211 41.6436C45.6687 40.317 45.3696 39.0116 44.8391 37.7942C44.9328 39.1547 44.5737 40.508 43.8176 41.6436H39.9623C35.9916 44.275 33.9541 46.6922 36.7102 55.3305C36.8898 55.898 38.1204 76.0603 38.4716 77.6102C32.4607 75.3081 27.2756 50.8655 27.1442 44.4249C27.1362 44.3205 27.1362 44.2107 27.1362 44.1036C27.1346 43.5877 27.1615 43.0721 27.2166 42.5591C27.2874 41.8587 27.4092 41.1645 27.5812 40.4818L27.5651 40.4792C26.9536 39.8954 26.487 39.177 26.2026 38.3814C25.9182 37.5858 25.8238 36.7348 25.927 35.8963C26.9354 34.5781 28.1832 33.4611 29.6054 32.6038C30.8986 31.9785 32.2466 31.4731 33.6323 31.094C33.6672 31.086 33.6967 31.0779 33.7315 31.0699C34.1551 30.9548 34.5895 30.8504 35.0238 30.7594C35.9188 30.572 36.8238 30.4353 37.7343 30.3498C37.8013 30.3472 37.8657 30.3418 37.9247 30.3418C38.2889 30.342 38.6463 30.44 38.9595 30.6255C38.9622 30.6255 38.9622 30.6282 38.9676 30.6282C39.2686 30.8078 39.5182 31.0617 39.6924 31.3655C39.8666 31.6693 39.9595 32.0128 39.9622 32.3628H44.2573C44.4154 32.3628 44.5736 32.3682 44.7318 32.3762C50.7132 32.6145 55.5203 35.1682 55.8286 41.0386C55.842 41.2421 55.8474 41.4402 55.8474 41.6436Z" fill="#2F2E41"/>
<path d="M30.4545 42.1081C34.6665 42.1081 38.0809 38.6989 38.0809 34.4934C38.0809 30.288 34.6665 26.8788 30.4545 26.8788C26.2425 26.8788 22.828 30.288 22.828 34.4934C22.828 38.6989 26.2425 42.1081 30.4545 42.1081Z" fill="#2F2E41"/>
<path d="M40.9248 30.9716C40.0583 35.0871 35.7836 37.5486 31.6942 36.5417C29.7303 36.0582 28.0393 34.8155 26.9931 33.0871C25.9469 31.3588 25.6312 29.2862 26.1155 27.3254C27.1239 23.2423 32.087 24.4194 35.346 21.7553C39.9565 17.9866 42.0932 25.4215 40.9248 30.9716Z" fill="#2F2E41"/>
<path d="M23.9799 145.532C30.4798 119.066 43.3587 96.3187 64.6879 78.4964C65.5134 77.1406 66.8438 76.167 68.3873 75.7893C69.9308 75.4116 71.5613 75.6606 72.9212 76.4818L123.626 107.178C124.984 108.002 125.959 109.33 126.337 110.871C126.716 112.412 126.466 114.04 125.644 115.398C117.503 142.554 105.309 166.119 84.9359 182.433C84.1104 183.789 82.78 184.763 81.2365 185.14C79.6931 185.518 78.0625 185.269 76.7027 184.448L25.9977 153.752C24.6398 152.928 23.6647 151.599 23.2864 150.058C22.9081 148.517 23.1575 146.889 23.9799 145.532Z" fill="#F2F2F2"/>
<path opacity="0.2" d="M32.9922 154.451C31.6342 153.626 30.6592 152.298 30.2809 150.757C29.9026 149.216 30.152 147.588 30.9744 146.23C37.4743 119.765 50.3532 97.0174 71.6824 79.195C72.2288 78.3075 73.0003 77.5799 73.9189 77.0857L72.9211 76.4816C71.5613 75.6605 69.9308 75.4115 68.3873 75.7892C66.8438 76.1668 65.5134 77.1404 64.6879 78.4962C43.3587 96.3186 30.4798 119.066 23.9799 145.531C23.1575 146.889 22.9081 148.517 23.2864 150.058C23.6647 151.599 24.6397 152.928 25.9977 153.752L76.7026 184.448C77.6051 184.99 78.6351 185.284 79.6882 185.301C80.7413 185.318 81.7801 185.056 82.6993 184.543L32.9922 154.451Z" fill="black"/>
<path d="M92.4562 139.664L58.4207 119.189C57.8799 118.862 57.491 118.335 57.3393 117.723C57.1876 117.11 57.2855 116.463 57.6116 115.923C57.9376 115.382 58.4652 114.993 59.0783 114.841C59.6914 114.689 60.34 114.786 60.8816 115.111L94.9171 135.587C95.4565 135.913 95.8441 136.44 95.995 137.052C96.1459 137.664 96.0478 138.31 95.7222 138.85C95.3965 139.39 94.8699 139.778 94.2577 139.931C93.6455 140.084 92.9977 139.988 92.4562 139.664Z" fill="white"/>
<path d="M72.6564 112.511L65.1687 108.007C64.626 107.683 64.2346 107.157 64.0804 106.544C63.9263 105.932 64.022 105.284 64.3467 104.742C64.6713 104.2 65.1982 103.809 65.8114 103.655C66.4247 103.501 67.0741 103.597 67.6167 103.921L67.6296 103.929L75.1174 108.434C75.6569 108.76 76.0447 109.287 76.1957 109.899C76.3467 110.511 76.2486 111.158 75.9229 111.697C75.5972 112.237 75.0705 112.626 74.4582 112.778C73.8459 112.931 73.198 112.835 72.6564 112.511Z" fill="white"/>
<path d="M87.0467 148.628L53.0112 128.152C52.4699 127.827 52.0801 127.3 51.9275 126.688C51.775 126.076 51.8721 125.428 52.1976 124.887C52.5231 124.346 53.0503 123.957 53.6634 123.804C54.2765 123.651 54.9253 123.747 55.4672 124.072L55.4721 124.074L89.5076 144.55C90.047 144.877 90.4346 145.404 90.5856 146.016C90.7365 146.628 90.6383 147.274 90.3127 147.814C89.987 148.354 89.4604 148.742 88.8482 148.895C88.236 149.048 87.5882 148.952 87.0467 148.628Z" fill="white"/>
<path d="M96.7784 101.057C102.269 101.057 106.719 96.6128 106.719 91.131C106.719 85.6492 102.269 81.2053 96.7784 81.2053C91.2881 81.2053 86.8373 85.6492 86.8373 91.131C86.8373 96.6128 91.2881 101.057 96.7784 101.057Z" fill="#3F3D56"/>
<path d="M79.6426 197.488C91.3773 197.488 100.89 187.99 100.89 176.273C100.89 164.557 91.3773 155.058 79.6426 155.058C67.9079 155.058 58.395 164.557 58.395 176.273C58.395 187.99 67.9079 197.488 79.6426 197.488Z" fill="white"/>
<path d="M79.6426 197.784C75.3816 197.784 71.2163 196.522 67.6734 194.159C64.1305 191.795 61.3691 188.436 59.7385 184.505C58.1079 180.574 57.6813 176.249 58.5125 172.077C59.3438 167.904 61.3956 164.071 64.4086 161.063C67.4216 158.055 71.2603 156.006 75.4394 155.176C79.6186 154.346 83.9503 154.772 87.887 156.4C91.8236 158.028 95.1883 160.785 97.5556 164.322C99.9229 167.86 101.187 172.019 101.187 176.273C101.18 181.976 98.9082 187.444 94.8693 191.476C90.8305 195.509 85.3544 197.777 79.6426 197.784ZM79.6426 155.355C75.4988 155.355 71.4481 156.581 68.0027 158.88C64.5573 161.179 61.8719 164.446 60.2862 168.268C58.7004 172.09 58.2855 176.296 59.094 180.354C59.9024 184.412 61.8978 188.14 64.8279 191.065C67.758 193.991 71.4911 195.983 75.5553 196.79C79.6194 197.597 83.832 197.183 87.6603 195.6C91.4886 194.016 94.7608 191.335 97.0629 187.895C99.365 184.455 100.594 180.41 100.594 176.273C100.587 170.727 98.3781 165.41 94.4503 161.488C90.5226 157.567 85.1972 155.361 79.6426 155.355Z" fill="#3F3D56"/>
<path d="M76.744 187.314C76.3771 187.314 76.0152 187.229 75.687 187.065C75.3589 186.901 75.0734 186.663 74.8534 186.37L69.0567 178.653C68.8702 178.405 68.7344 178.123 68.6571 177.823C68.5799 177.523 68.5626 177.21 68.6064 176.903C68.6502 176.596 68.7542 176.301 68.9124 176.034C69.0705 175.767 69.2798 175.534 69.5283 175.348C69.7767 175.162 70.0594 175.027 70.3603 174.95C70.6611 174.873 70.9742 174.856 71.2816 174.9C71.589 174.944 71.8847 175.048 72.1518 175.206C72.4189 175.364 72.6522 175.573 72.8383 175.822L76.6307 180.87L86.3709 166.282C86.5431 166.025 86.7644 165.803 87.0223 165.631C87.2802 165.458 87.5696 165.338 87.8739 165.277C88.1783 165.217 88.4917 165.216 88.7961 165.276C89.1006 165.337 89.3903 165.456 89.6485 165.628C89.9068 165.8 90.1286 166.021 90.3013 166.278C90.474 166.536 90.5942 166.825 90.6551 167.129C90.716 167.432 90.7163 167.745 90.6561 168.049C90.5959 168.353 90.4762 168.643 90.3041 168.9L78.7107 186.263C78.501 186.577 78.219 186.837 77.8882 187.019C77.5574 187.202 77.1876 187.303 76.8098 187.314C76.7878 187.314 76.7659 187.314 76.744 187.314Z" fill="#CA181C"/>
<path d="M148.262 68.767C149.106 68.6949 149.75 68.1611 149.7 67.5746C149.65 66.9882 148.924 66.5712 148.08 66.6433C147.236 66.7154 146.592 67.2492 146.642 67.8357C146.692 68.4221 147.418 68.8391 148.262 68.767Z" fill="white"/>
<path d="M157.762 65.5493C158.606 65.4773 159.25 64.9434 159.2 64.357C159.149 63.7705 158.424 63.3536 157.58 63.4256C156.736 63.4977 156.092 64.0316 156.142 64.618C156.192 65.2045 156.917 65.6214 157.762 65.5493Z" fill="#3F3D56"/>
<path d="M143.759 61.5304C144.603 61.4583 145.247 60.9245 145.197 60.3381C145.146 59.7516 144.421 59.3346 143.577 59.4067C142.733 59.4788 142.089 60.0126 142.139 60.5991C142.189 61.1855 142.915 61.6025 143.759 61.5304Z" fill="#FF6584"/>
<path d="M139.774 59.1986C140.137 59.1166 140.336 58.6274 140.218 58.1058C140.1 57.5842 139.71 57.2278 139.347 57.3098C138.983 57.3918 138.784 57.8811 138.902 58.4027C139.02 58.9242 139.411 59.2806 139.774 59.1986Z" fill="#E6E6E6"/>
<path d="M136.937 53.5377C137.3 53.4557 137.499 52.9665 137.381 52.4449C137.263 51.9233 136.873 51.5669 136.509 51.6489C136.146 51.7309 135.947 52.2202 136.065 52.7418C136.183 53.2633 136.573 53.6197 136.937 53.5377Z" fill="#3F3D56"/>
<path d="M150.549 61.4877C150.912 61.4057 151.111 60.9164 150.993 60.3948C150.875 59.8732 150.485 59.5169 150.121 59.5989C149.758 59.6809 149.559 60.1701 149.677 60.6917C149.795 61.2133 150.185 61.5697 150.549 61.4877Z" fill="#E6E6E6"/>
<path d="M146.4 64.9269C146.763 64.8449 146.962 64.3556 146.844 63.834C146.726 63.3125 146.335 62.9561 145.972 63.0381C145.609 63.1201 145.41 63.6093 145.528 64.1309C145.646 64.6525 146.036 65.0089 146.4 64.9269Z" fill="#FF6584"/>
<path d="M153.953 67.7282C154.317 67.6462 154.516 67.1569 154.398 66.6353C154.28 66.1137 153.889 65.7574 153.526 65.8394C153.163 65.9213 152.964 66.4106 153.082 66.9322C153.2 67.4538 153.59 67.8101 153.953 67.7282Z" fill="#3F3D56"/>
<path d="M109.04 24.9163C109.185 24.3457 108.637 23.7147 107.815 23.5069C106.994 23.299 106.21 23.593 106.066 24.1636C105.921 24.7341 106.469 25.3651 107.291 25.573C108.112 25.7808 108.896 25.4868 109.04 24.9163Z" fill="white"/>
<path d="M99.0091 24.8517C99.1539 24.2811 98.6054 23.6501 97.784 23.4423C96.9625 23.2344 96.1792 23.5284 96.0344 24.099C95.8896 24.6695 96.4381 25.3006 97.2596 25.5084C98.081 25.7163 98.8643 25.4222 99.0091 24.8517Z" fill="#3F3D56"/>
<path d="M110.923 33.2258C111.068 32.6553 110.519 32.0243 109.698 31.8164C108.876 31.6086 108.093 31.9026 107.948 32.4732C107.803 33.0437 108.352 33.6747 109.173 33.8826C109.995 34.0904 110.778 33.7964 110.923 33.2258Z" fill="#FF6584"/>
<path d="M113.261 36.3592C113.321 35.8278 113.069 35.3635 112.698 35.3222C112.328 35.2809 111.98 35.6782 111.92 36.2097C111.861 36.7411 112.113 37.2054 112.483 37.2467C112.853 37.288 113.202 36.8907 113.261 36.3592Z" fill="#E6E6E6"/>
<path d="M114.086 42.6355C114.146 42.1041 113.894 41.6398 113.523 41.5985C113.153 41.5572 112.805 41.9545 112.745 42.4859C112.686 43.0173 112.938 43.4816 113.308 43.5229C113.678 43.5642 114.027 43.1669 114.086 42.6355Z" fill="#3F3D56"/>
<path d="M103.83 30.6748C103.89 30.1434 103.638 29.6791 103.268 29.6378C102.897 29.5965 102.549 29.9938 102.49 30.5252C102.43 31.0566 102.682 31.5209 103.052 31.5622C103.423 31.6035 103.771 31.2062 103.83 30.6748Z" fill="#E6E6E6"/>
<path d="M108.879 28.7811C108.938 28.2497 108.686 27.7854 108.316 27.7441C107.946 27.7028 107.597 28.1001 107.538 28.6315C107.478 29.163 107.73 29.6272 108.101 29.6685C108.471 29.7099 108.819 29.3125 108.879 28.7811Z" fill="#FF6584"/>
<path d="M102.66 23.6654C102.719 23.134 102.467 22.6697 102.097 22.6284C101.727 22.5871 101.378 22.9844 101.319 23.5158C101.259 24.0472 101.511 24.5115 101.881 24.5528C102.252 24.5941 102.6 24.1968 102.66 23.6654Z" fill="#3F3D56"/>
<path d="M0.592803 77.61H0V0H45.7807V0.591885C33.7962 0.591885 22.3024 5.34536 13.828 13.8066C5.35366 22.2678 0.592803 33.7438 0.592803 45.7098V77.61Z" fill="#CCCCCC"/>
<path d="M27.1415 145.812C26.3839 145.502 25.7028 145.031 25.1452 144.433C24.5876 143.834 24.167 143.122 23.9123 142.345C23.6576 141.568 23.575 140.745 23.6701 139.933C23.7653 139.121 24.036 138.339 24.4635 137.642L8.13013 114.718L13.37 108.648L32.5699 136.017C33.6918 136.823 34.4788 138.012 34.7816 139.358C35.0844 140.704 34.8821 142.115 34.213 143.322C33.5438 144.529 32.4544 145.45 31.1511 145.909C29.8478 146.367 28.4211 146.333 27.1415 145.812Z" fill="#FFB6B6"/>
<path d="M27.5168 73.1664C26.6905 72.6809 25.7179 72.5055 24.7737 72.6714C23.8295 72.8374 22.9754 73.334 22.3648 74.072L0.296387 104.888L20.7481 133.89L28.7509 125.308L16.3021 105.776L32.8467 90.048C34.2063 87.0741 34.414 83.7027 33.4296 80.5849C32.4453 77.4671 30.3387 74.8241 27.5168 73.1664Z" fill="#CA181C"/>
<path d="M79.3857 197.784C91.1608 197.784 100.706 188.238 100.706 176.463C100.706 164.688 91.1608 155.142 79.3857 155.142C67.6106 155.142 58.0649 164.688 58.0649 176.463C58.0649 188.238 67.6106 197.784 79.3857 197.784Z" fill="#CA181C"/>
<path d="M78.9411 185.082C78.6551 185.082 78.3731 185.015 78.1173 184.888C77.8615 184.76 77.6391 184.574 77.4675 184.345L72.9496 178.321C72.8045 178.128 72.6989 177.907 72.6389 177.673C72.5788 177.439 72.5655 177.195 72.5998 176.955C72.634 176.716 72.715 176.486 72.8383 176.277C72.9615 176.069 73.1246 175.887 73.3181 175.742C73.709 175.449 74.2002 175.323 74.6839 175.392C74.9233 175.427 75.1537 175.508 75.3619 175.631C75.57 175.754 75.7519 175.917 75.897 176.111L78.8528 180.051L86.4444 168.664C86.7154 168.258 87.1368 167.976 87.6158 167.88C88.0949 167.784 88.5924 167.882 88.999 168.153C89.4055 168.424 89.6877 168.846 89.7835 169.325C89.8793 169.804 89.7809 170.302 89.5099 170.708L80.474 184.262C80.3106 184.507 80.0907 184.709 79.8329 184.852C79.5751 184.995 79.2869 185.073 78.9924 185.082C78.9753 185.082 78.9582 185.082 78.9411 185.082Z" fill="white"/>
<path d="M169.601 198.684H159.403L159.359 198.605C159.229 198.368 159.103 198.117 158.985 197.859C157.935 195.606 157.491 193.029 157.099 190.755L156.804 189.042C156.768 188.834 156.795 188.621 156.881 188.429C156.967 188.236 157.109 188.074 157.287 187.963C157.466 187.852 157.673 187.797 157.883 187.805C158.093 187.812 158.296 187.883 158.466 188.007C160.016 189.136 161.567 190.265 163.118 191.393C163.705 191.821 164.376 192.316 165.018 192.852C165.08 192.55 165.145 192.248 165.21 191.95C165.255 191.744 165.36 191.556 165.512 191.41C165.664 191.264 165.855 191.167 166.063 191.131C166.27 191.095 166.483 191.122 166.675 191.209C166.867 191.295 167.029 191.436 167.14 191.615L168.333 193.536C169.204 194.938 169.972 196.32 169.815 197.811C169.816 197.829 169.815 197.847 169.811 197.865C169.78 198.11 169.722 198.351 169.638 198.583L169.601 198.684Z" fill="#CCCCCC"/>
<path d="M179.838 198.905L82.9252 199C82.8285 198.999 82.7359 198.961 82.6677 198.892C82.5995 198.823 82.5612 198.73 82.5612 198.633C82.5612 198.537 82.5995 198.444 82.6677 198.375C82.7359 198.306 82.8285 198.267 82.9252 198.267L179.838 198.172C179.935 198.173 180.027 198.212 180.095 198.28C180.164 198.349 180.202 198.442 180.202 198.539C180.202 198.636 180.164 198.729 180.095 198.797C180.027 198.866 179.935 198.905 179.838 198.905Z" fill="#CACACA"/>
<path d="M169.32 198.587L79.2704 198.691C79.1805 198.691 79.0944 198.648 79.031 198.573C78.9677 198.497 78.9321 198.396 78.9321 198.289C78.9321 198.183 78.9677 198.081 79.031 198.006C79.0944 197.931 79.1805 197.888 79.2704 197.888L169.32 197.784C169.41 197.784 169.496 197.827 169.56 197.902C169.623 197.977 169.659 198.079 169.659 198.186C169.659 198.292 169.623 198.394 169.56 198.469C169.496 198.544 169.41 198.587 169.32 198.587Z" fill="#CACACA"/>
</svg>
