<svg width="48" height="48" viewBox="0 0 48 48" fill="none" xmlns="http://www.w3.org/2000/svg">
<circle cx="24" cy="24" r="24" fill="#CA181C" fill-opacity="0.16"/>
<path d="M32 14H16C14.9 14 14.01 14.9 14.01 16L14 34L18 30H32C33.1 30 34 29.1 34 28V16C34 14.9 33.1 14 32 14ZM29 26H19C18.45 26 18 25.55 18 25C18 24.45 18.45 24 19 24H29C29.55 24 30 24.45 30 25C30 25.55 29.55 26 29 26ZM29 23H19C18.45 23 18 22.55 18 22C18 21.45 18.45 21 19 21H29C29.55 21 30 21.45 30 22C30 22.55 29.55 23 29 23ZM29 20H19C18.45 20 18 19.55 18 19C18 18.45 18.45 18 19 18H29C29.55 18 30 18.45 30 19C30 19.55 29.55 20 29 20Z" fill="#CA181C"/>
</svg>
