<svg width="48" height="48" viewBox="0 0 48 48" fill="none" xmlns="http://www.w3.org/2000/svg">
<path d="M33.3333 24C33.0222 24 32.7453 23.888 32.5027 23.664C32.2592 23.4408 32.1181 23.1639 32.0792 22.8333C31.8264 21.025 31.0634 19.4838 29.7902 18.2098C28.5162 16.9366 26.975 16.1736 25.1667 15.9208C24.8361 15.8819 24.5592 15.7458 24.336 15.5125C24.112 15.2792 24 14.9972 24 14.6667C24 14.3361 24.1167 14.0588 24.35 13.8348C24.5833 13.6116 24.8556 13.5194 25.1667 13.5583C27.6167 13.8306 29.7069 14.8319 31.4375 16.5625C33.1681 18.2931 34.1694 20.3833 34.4417 22.8333C34.4806 23.1444 34.388 23.4167 34.164 23.65C33.9408 23.8833 33.6639 24 33.3333 24ZM28.4625 24C28.2097 24 27.9861 23.9125 27.7917 23.7375C27.5972 23.5625 27.4514 23.3292 27.3542 23.0375C27.1986 22.4736 26.9023 21.9727 26.4652 21.5348C26.0273 21.0977 25.5264 20.8014 24.9625 20.6458C24.6708 20.5486 24.4375 20.4028 24.2625 20.2083C24.0875 20.0139 24 19.7806 24 19.5083C24 19.1194 24.1361 18.8033 24.4083 18.5598C24.6806 18.3172 24.9819 18.2347 25.3125 18.3125C26.4014 18.5653 27.3398 19.0852 28.1277 19.8723C28.9148 20.6602 29.4347 21.5986 29.6875 22.6875C29.7653 23.0181 29.6778 23.3194 29.425 23.5917C29.1722 23.8639 28.8514 24 28.4625 24ZM33.275 34.5C30.7667 34.5 28.3217 33.9408 25.9402 32.8223C23.5578 31.7047 21.4481 30.2269 19.611 28.389C17.7731 26.5519 16.2953 24.4422 15.1777 22.0598C14.0592 19.6783 13.5 17.2333 13.5 14.725C13.5 14.375 13.6167 14.0833 13.85 13.85C14.0833 13.6167 14.375 13.5 14.725 13.5H19.45C19.7222 13.5 19.9653 13.5875 20.1792 13.7625C20.3931 13.9375 20.5194 14.1611 20.5583 14.4333L21.3167 18.5167C21.3556 18.7889 21.3509 19.0366 21.3027 19.2598C21.2537 19.4838 21.1417 19.6833 20.9667 19.8583L18.1667 22.7167C18.9833 24.1167 20.0042 25.4292 21.2292 26.6542C22.4542 27.8792 23.8056 28.9389 25.2833 29.8333L28.025 27.0917C28.2 26.9167 28.4287 26.7852 28.711 26.6973C28.9926 26.6102 29.2694 26.5861 29.5417 26.625L33.5667 27.4417C33.8389 27.5 34.0625 27.6311 34.2375 27.8348C34.4125 28.0394 34.5 28.2778 34.5 28.55V33.275C34.5 33.625 34.3833 33.9167 34.15 34.15C33.9167 34.3833 33.625 34.5 33.275 34.5Z" fill="#CA181C"/>
<circle cx="24" cy="24" r="24" fill="#CA181C" fill-opacity="0.16"/>
</svg>
