<svg width="206" height="176" viewBox="0 0 206 176" fill="none" xmlns="http://www.w3.org/2000/svg">
<g clip-path="url(#clip0_9_223)">
<path d="M106.077 87.6341C106.815 90.5863 105.828 93.3566 103.873 93.8214C101.918 94.2863 99.7354 92.27 98.9978 89.3166C98.6863 88.1408 98.6723 86.9084 98.9571 85.7223L95.9955 73.1744L102.151 71.9207L104.417 84.4238C105.23 85.3492 105.799 86.45 106.077 87.6341Z" fill="#FDADB0"/>
<path d="M80.2678 159.384L80.647 167.608L80.2672 169.884L81.5966 172.539L92.0417 173.677L92.6115 168.746L87.104 165.902L86.9439 161.255L80.2678 159.384Z" fill="#FDADB0"/>
<path d="M91.2821 171.781L90.7123 172.539L79.7737 169.391C79.7737 169.391 80.2672 174.246 80.2672 175.194C80.2672 176.142 98.3088 176.142 101.024 175.763C103.738 175.384 102.867 172.918 102.867 172.918L91.6082 167.597L91.2821 171.781Z" fill="#2F2E43"/>
<path d="M53.0546 153.33L50.7783 161.243L49.6891 163.278L50.0977 166.218L59.6289 170.634L61.7488 166.145L57.4427 161.69L60.1439 154.695L53.0546 153.33Z" fill="#FDADB0"/>
<path d="M59.5169 168.595L58.734 169.131L49.3795 162.653C49.3795 162.653 48.2913 167.41 47.9874 168.309C47.6835 169.207 64.7762 174.973 67.4698 175.481C70.1634 175.989 70.1276 173.375 70.1276 173.375L61.1668 164.735L59.5169 168.595Z" fill="#2F2E43"/>
<path d="M81.0041 23.6075L81.4029 30.0755L69.3082 30.6882L73.0536 22.1665L81.0041 23.6075Z" fill="#FDADB0"/>
<path d="M81.7115 29.108C78.4697 30.552 73.2845 30.1569 67.4083 29.108L66.4898 69.7616C66.4898 69.7616 84.8715 73.4521 91.1915 66.6427L87.8652 33.4262L81.7115 29.108Z" fill="#E0E1E2"/>
<path d="M89.1957 67.6392L63.2454 70.2004L50.4391 157.033H60.2518L77.0546 97.534L78.3851 164.964H87.3662L95.0168 82.4205L89.1957 67.6392Z" fill="#CA181C"/>
<path d="M71.0976 26.6168L62.3785 31.7692C59.0756 33.7211 57.5187 37.6612 58.5971 41.3394L65.3358 64.3225C65.3358 64.3225 54.3625 83.1477 57.9282 84.8085C65.9408 88.5407 77.8974 87.6319 77.8974 87.6319L75.2251 42.5608L71.0976 26.6168Z" fill="#CA181C"/>
<path d="M81.3327 28.9371L91.1915 32.7619L93.5199 61.162L100.041 84.041C88.9961 88.0668 90.0273 86.1908 90.0273 86.1908L88.1978 46.7128L81.3327 28.9371Z" fill="#CA181C"/>
<path d="M95.7348 83.5572L95.701 83.4017L85.6234 36.8568C85.3418 35.5563 85.7019 34.2527 86.6112 33.28C87.5205 32.3073 88.7985 31.8592 90.1173 32.0507C91.7439 32.2869 93.0461 33.47 93.4346 35.065L104.504 80.5008L95.7348 83.5572Z" fill="#CA181C"/>
<path d="M75.756 25.3258C81.1753 25.3258 85.5686 20.9388 85.5686 15.5271C85.5686 10.1154 81.1753 5.72839 75.756 5.72839C70.3367 5.72839 65.9435 10.1154 65.9435 15.5271C65.9435 20.9388 70.3367 25.3258 75.756 25.3258Z" fill="#FDADB0"/>
<path d="M80.4244 2.83212C82.5858 3.5907 83.8225 4.02478 84.9554 5.11464C86.869 6.95559 87.1848 9.41577 87.4783 11.7017C87.7078 13.4899 88.0047 15.802 86.956 18.4437C86.5981 19.3452 84.8622 23.3616 81.5395 23.8692C80.8869 23.9689 79.3549 23.9951 79.7965 23.6695C83.8833 20.6566 85.6274 18.8377 85.4844 14.1942C85.3956 11.309 80.9806 8.19391 78.3591 7.63392C77.2548 7.39805 75.7846 7.61353 74.7303 8.4778C72.527 10.284 72.621 17.7533 70.2977 19.3146C69.3423 19.9567 69.9789 15.4367 69.3057 16.1697C67.9773 17.616 68.8294 19.8309 69.0681 20.6744C70.2004 24.6754 72.3351 25.067 73.4411 28.4837C74.6351 32.1725 73.1323 35.6454 72.776 36.4689C72.1561 37.9016 71.0922 40.3603 68.6615 41.5398C65.5763 43.037 63.1444 41.0874 61.7101 42.7588C60.9082 43.6932 61.342 44.6828 59.8938 47.5892C59.421 48.5379 59.1847 49.0123 58.9754 48.9955C57.9851 48.9158 56.3818 41.0001 58.9749 33.6283C60.0632 30.5346 61.1294 27.5035 63.9872 25.1334C65.4982 23.8803 66.7654 23.4294 67.1261 21.9661C67.6414 19.8756 65.5017 18.9833 65.0727 15.6848C64.7794 13.4289 64.5736 10.2026 65.3713 8.13469C66.1244 6.18187 66.7783 4.48669 68.4897 2.9497C68.9007 2.58053 72.2188 0.0711419 75.7369 0.000356358C77.3566 -0.0321841 78.5466 2.17305 80.4244 2.83212Z" fill="#2F2E43"/>
<path d="M101.159 88.4286C114.413 88.4286 125.158 77.6985 125.158 64.4624C125.158 51.2262 114.413 40.4962 101.159 40.4962C87.9037 40.4962 77.1586 51.2262 77.1586 64.4624C77.1586 77.6985 87.9037 88.4286 101.159 88.4286Z" fill="white"/>
<path d="M95.0857 80.0984C96.5426 74.8503 97.9996 69.6022 99.4565 64.3542C99.7667 63.2369 100.007 61.996 100.717 61.0478C101.266 60.3147 102.129 59.8351 103.042 60.1366C105.221 60.8553 105.186 63.9943 105.147 65.8256C105.089 68.5902 104.464 71.3484 103.313 73.8647C103.156 74.2098 103.215 74.6213 103.566 74.8264C103.868 75.0032 104.37 74.9212 104.529 74.5743C105.681 72.0546 106.365 69.3575 106.525 66.5901C106.662 64.2023 106.672 61.0533 104.6 59.4259C103.587 58.6304 102.294 58.3941 101.106 58.9439C99.9326 59.4872 99.216 60.6121 98.7653 61.7769C98.2642 63.072 97.9657 64.4608 97.5947 65.7971L96.3993 70.1032C95.5089 73.3104 94.6186 76.5175 93.7283 79.7247C93.4859 80.5978 94.8436 80.9704 95.0857 80.0984Z" fill="#CA181C"/>
<path d="M101.328 72.7895C102.229 69.4104 102.69 65.916 102.694 62.4191C102.695 61.5145 101.287 61.5131 101.286 62.4191C101.282 65.7976 100.841 69.1511 99.9704 72.4158C99.7369 73.2909 101.094 73.6642 101.328 72.7895Z" fill="#CA181C"/>
<path d="M86.8557 72.7488C87.7991 68.2062 88.8203 63.6492 90.1298 59.196C91.1916 55.5851 93.0224 51.4932 96.8864 50.184C98.8054 49.5338 100.885 49.6385 102.85 50.0158C104.797 50.3899 106.77 50.9467 108.565 51.7984C110.264 52.6046 111.836 53.7158 112.955 55.2465C114.059 56.7576 114.747 58.5113 115.118 60.3374C115.978 64.5752 114.965 68.9044 113.831 72.9889C113.68 73.5326 113.526 74.0752 113.371 74.6178C113.123 75.4896 114.481 75.8617 114.729 74.9915C115.982 70.5879 117.284 65.9877 116.7 61.3661C116.448 59.3673 115.886 57.4038 114.886 55.6446C113.861 53.842 112.381 52.3685 110.608 51.2974C108.819 50.2173 106.806 49.5297 104.789 49.0136C102.648 48.4654 100.419 48.128 98.2136 48.4344C96.1337 48.7232 94.2599 49.7079 92.7871 51.1947C91.2782 52.7179 90.2579 54.6211 89.505 56.6102C88.6746 58.804 88.1324 61.1085 87.5612 63.3796C86.9574 65.78 86.3942 68.1905 85.8718 70.6099C85.7448 71.1978 85.6205 71.7862 85.4982 72.3751C85.4211 72.7464 85.6067 73.1346 85.9898 73.2397C86.3386 73.3354 86.7781 73.1222 86.8557 72.7488Z" fill="#CA181C"/>
<path d="M94.1111 58.2172C95.2089 54.8908 98.7439 52.8314 102.167 53.0596C105.96 53.3126 109.249 56.0794 110.58 59.561C111.372 61.6298 111.604 63.9067 111.272 66.0957C111.215 66.4706 111.366 66.8514 111.763 66.9604C112.096 67.0517 112.572 66.847 112.629 66.4694C113.294 62.0941 112.072 57.3265 108.624 54.3678C107.007 52.9804 105.026 52.0201 102.906 51.7325C100.867 51.4561 98.8122 51.8329 97.0073 52.824C95.0273 53.9111 93.4633 55.6932 92.7536 57.8435C92.4694 58.7047 93.8284 59.0739 94.1111 58.2172Z" fill="#CA181C"/>
<path d="M91.1158 64.6643C90.8134 68.2704 89.9033 71.8362 88.4307 75.1436C88.2764 75.4902 88.3299 75.8988 88.6833 76.1053C88.9832 76.2805 89.4911 76.2017 89.6463 75.8531C91.2268 72.3032 92.1989 68.5365 92.5235 64.6643C92.5553 64.2855 92.1773 63.9614 91.8196 63.9614C91.4124 63.9614 91.1476 64.2844 91.1158 64.6643Z" fill="#CA181C"/>
<path d="M108.12 68.6896C107.818 72.2957 106.908 75.8615 105.435 79.1689C105.281 79.5155 105.334 79.9241 105.688 80.1305C105.988 80.3057 106.495 80.227 106.651 79.8784C108.231 76.3285 109.203 72.5618 109.528 68.6896C109.56 68.3108 109.182 67.9867 108.824 67.9867C108.417 67.9867 108.152 68.3097 108.12 68.6896Z" fill="#CA181C"/>
<path d="M94.6577 65.892C95.5629 62.3076 97.0627 58.9107 99.0975 55.8227C99.5969 55.0647 98.3784 54.3597 97.882 55.1132C95.7861 58.2938 94.2326 61.8264 93.3003 65.5182C93.0787 66.3957 94.436 66.77 94.6577 65.892Z" fill="#CA181C"/>
<path d="M0 175.546C0 175.732 0.149229 175.881 0.335059 175.881H205.665C205.851 175.881 206 175.732 206 175.546C206 175.361 205.851 175.212 205.665 175.212H0.335059C0.149229 175.212 0 175.361 0 175.546Z" fill="#CCCCCC"/>
<path d="M80.9007 59.5747C83.9311 59.2564 86.5407 60.6181 86.7294 62.6161C86.9182 64.614 84.6147 66.4912 81.5833 66.8093C80.3739 66.9535 79.1498 66.7957 78.0134 66.3489L65.1578 67.53L64.7718 61.268L77.4861 60.7686C78.5169 60.0941 79.6878 59.6847 80.9007 59.5747Z" fill="#FDADB0"/>
<path d="M65.2382 32.0663C62.1263 31.6286 59.2068 33.6718 58.56 36.7428C56.3035 47.4568 52.2541 70.2789 58.6141 70.6599C66.93 71.1582 74.9131 69.1652 74.9131 69.1652L72.9173 57.7055L66.431 57.0412L70.2464 39.22C70.9709 35.8362 68.6694 32.5489 65.2382 32.0663Z" fill="#CA181C"/>
<path d="M122.516 124.778C123.416 124.701 124.102 124.132 124.049 123.507C123.995 122.882 123.222 122.437 122.322 122.514C121.422 122.591 120.736 123.16 120.789 123.785C120.843 124.41 121.616 124.854 122.516 124.778Z" fill="white"/>
<path d="M145.727 153.789C146.627 153.712 147.313 153.143 147.26 152.518C147.206 151.893 146.433 151.448 145.533 151.525C144.633 151.602 143.947 152.171 144.001 152.796C144.054 153.421 144.827 153.865 145.727 153.789Z" fill="white"/>
<path d="M132.643 121.348C133.543 121.271 134.229 120.702 134.175 120.077C134.122 119.452 133.349 119.008 132.449 119.084C131.549 119.161 130.862 119.73 130.916 120.355C130.97 120.98 131.743 121.425 132.643 121.348Z" fill="#3F3D56"/>
<path d="M155.854 150.359C156.754 150.282 157.44 149.713 157.387 149.088C157.333 148.463 156.56 148.019 155.66 148.095C154.76 148.172 154.074 148.741 154.127 149.366C154.181 149.991 154.954 150.436 155.854 150.359Z" fill="#3F3D56"/>
<path d="M113.468 114.579C113.855 114.492 114.067 113.97 113.941 113.414C113.816 112.858 113.4 112.478 113.012 112.566C112.625 112.653 112.413 113.175 112.539 113.731C112.664 114.286 113.08 114.666 113.468 114.579Z" fill="#E6E6E6"/>
<path d="M136.679 143.59C137.066 143.502 137.279 142.981 137.153 142.425C137.027 141.869 136.611 141.489 136.223 141.577C135.836 141.664 135.624 142.186 135.75 142.741C135.876 143.297 136.292 143.677 136.679 143.59Z" fill="#E6E6E6"/>
<path d="M110.443 108.545C110.831 108.458 111.043 107.936 110.917 107.38C110.791 106.824 110.375 106.444 109.988 106.532C109.6 106.619 109.388 107.141 109.514 107.697C109.64 108.253 110.056 108.632 110.443 108.545Z" fill="#3F3D56"/>
<path d="M133.655 137.556C134.042 137.469 134.254 136.947 134.128 136.391C134.002 135.835 133.586 135.455 133.199 135.543C132.812 135.63 132.6 136.152 132.725 136.708C132.851 137.264 133.267 137.643 133.655 137.556Z" fill="#3F3D56"/>
<path d="M124.954 117.019C125.341 116.931 125.553 116.41 125.427 115.854C125.301 115.298 124.885 114.918 124.498 115.005C124.111 115.093 123.899 115.614 124.024 116.17C124.15 116.726 124.566 117.106 124.954 117.019Z" fill="#E6E6E6"/>
<path d="M148.165 146.03C148.552 145.942 148.764 145.421 148.639 144.865C148.513 144.309 148.097 143.929 147.709 144.016C147.322 144.104 147.11 144.625 147.236 145.181C147.362 145.737 147.778 146.117 148.165 146.03Z" fill="#E6E6E6"/>
<path d="M120.531 120.684C120.918 120.597 121.13 120.076 121.004 119.52C120.878 118.964 120.462 118.584 120.075 118.671C119.688 118.759 119.475 119.28 119.601 119.836C119.727 120.392 120.143 120.772 120.531 120.684Z" fill="#FF6584"/>
<path d="M143.742 149.695C144.129 149.608 144.341 149.087 144.215 148.531C144.09 147.975 143.674 147.595 143.286 147.682C142.899 147.77 142.687 148.291 142.813 148.847C142.938 149.403 143.354 149.783 143.742 149.695Z" fill="#FF6584"/>
<path d="M128.583 123.67C128.97 123.583 129.182 123.061 129.056 122.505C128.931 121.95 128.515 121.57 128.127 121.657C127.74 121.744 127.528 122.266 127.654 122.822C127.779 123.378 128.195 123.758 128.583 123.67Z" fill="#3F3D56"/>
<path d="M151.794 152.681C152.182 152.594 152.394 152.072 152.268 151.516C152.142 150.961 151.726 150.581 151.338 150.668C150.951 150.755 150.739 151.277 150.865 151.833C150.991 152.389 151.407 152.769 151.794 152.681Z" fill="#3F3D56"/>
<path d="M194.394 175.033C200.804 175.033 206 169.837 206 163.429C206 157.02 200.804 151.824 194.394 151.824C187.985 151.824 182.789 157.02 182.789 163.429C182.789 169.837 187.985 175.033 194.394 175.033Z" fill="#CA181C"/>
<path d="M194.094 168.264C193.934 168.264 193.775 168.226 193.632 168.155C193.488 168.083 193.364 167.979 193.267 167.85L190.732 164.471C190.651 164.362 190.592 164.239 190.558 164.107C190.524 163.976 190.517 163.839 190.536 163.705C190.555 163.57 190.601 163.441 190.67 163.324C190.739 163.208 190.831 163.106 190.939 163.024C191.159 162.86 191.434 162.789 191.705 162.828C191.84 162.847 191.969 162.893 192.086 162.962C192.203 163.031 192.305 163.122 192.386 163.231L194.044 165.442L198.304 159.054C198.456 158.826 198.692 158.667 198.961 158.613C199.23 158.56 199.509 158.615 199.737 158.767C199.965 158.919 200.123 159.155 200.177 159.424C200.231 159.693 200.176 159.972 200.024 160.2L194.954 167.804C194.862 167.941 194.739 168.055 194.594 168.135C194.45 168.215 194.288 168.259 194.123 168.263C194.113 168.264 194.104 168.264 194.094 168.264Z" fill="white"/>
<path d="M13.6585 11.5973H2.78698L2.74027 11.5124C2.60127 11.2599 2.46706 10.9923 2.34166 10.7174C1.22181 8.31588 0.748497 5.56929 0.330853 3.14602L0.0163796 1.31944C-0.0217043 1.09823 0.00697253 0.870666 0.0987569 0.665879C0.190541 0.461091 0.341261 0.288389 0.531598 0.169898C0.721935 0.0514074 0.943233 -0.00747417 1.16718 0.000759281C1.39113 0.00899273 1.60754 0.083975 1.78869 0.216123C3.44087 1.42039 5.0937 2.62348 6.74716 3.82538C7.37323 4.2817 8.08823 4.80981 8.77301 5.38054C8.83907 5.05912 8.90817 4.73675 8.97727 4.41886C9.02492 4.19937 9.13687 3.99911 9.2988 3.84373C9.46073 3.68834 9.66526 3.5849 9.88622 3.54663C10.1072 3.50836 10.3345 3.537 10.5391 3.6289C10.7438 3.72081 10.9163 3.87179 11.0348 4.06252L12.3068 6.10957C13.2345 7.60448 14.0533 9.0776 13.8865 10.6664C13.8873 10.6857 13.8858 10.7051 13.8822 10.7241C13.8488 10.9851 13.7869 11.2416 13.6976 11.489L13.6585 11.5973Z" fill="#CCCCCC"/>
</g>
<defs>
<clipPath id="clip0_9_223">
<rect width="206" height="176" fill="white"/>
</clipPath>
</defs>
</svg>
