<svg width="180" height="215" viewBox="0 0 180 215" fill="none" xmlns="http://www.w3.org/2000/svg">
<g clip-path="url(#clip0_1_2080)">
<path d="M60.2306 146.209C60.6058 147.279 61.039 148.327 61.5282 149.348V149.351C61.9245 150.183 62.3554 150.993 62.8208 151.783H117.104V151.892C117.596 151.068 118.049 150.219 118.462 149.346C118.952 148.325 119.385 147.278 119.759 146.209H60.2306ZM61.5989 149.315V148.808H118.399V149.315H61.5989ZM65.83 156.045H114.16C115.151 154.862 116.055 153.606 116.864 152.29H63.1262C63.9351 153.606 64.8388 154.862 65.83 156.045Z" fill="#3F3D56"/>
<path d="M120.608 143.364C120.413 144.158 120.186 144.936 119.931 145.702H60.0589C59.8039 144.936 59.5767 144.158 59.3823 143.364H120.608Z" fill="#3F3D56"/>
<path d="M120.645 143.214V142.857H59.3445V143.214C59.1299 142.332 58.9523 141.433 58.8118 140.519H121.178C121.039 141.432 120.862 142.33 120.645 143.214Z" fill="#3F3D56"/>
<path d="M58.7007 137.166V137.674H121.484C121.436 138.462 121.36 139.241 121.251 140.012H58.7386C58.6326 139.246 58.5543 138.47 58.5089 137.684C58.4634 137.019 58.4432 136.35 58.4432 135.673C58.4432 135.216 58.4533 134.763 58.471 134.311V134.306C58.5139 133.345 58.5964 132.397 58.7184 131.461V131.458C58.8244 130.675 58.9566 129.901 59.1148 129.136H120.774V128.674C120.981 129.592 121.146 130.525 121.269 131.474H58.8295V131.981H121.332C121.415 132.688 121.474 133.402 121.509 134.121L121.516 134.319H58.7664V134.826H121.534C121.544 135.107 121.547 135.389 121.547 135.673C121.547 136.175 121.534 136.672 121.511 137.166H58.7007Z" fill="#3F3D56"/>
<path d="M120.764 128.628H59.2258C59.4051 127.837 59.6129 127.058 59.8494 126.29H120.13V126.263C120.373 127.039 120.582 127.827 120.764 128.628Z" fill="#3F3D56"/>
<path d="M119.979 125.783H60.011C60.324 124.82 60.6817 123.878 61.0839 122.958V123.443H118.906V122.961C119.307 123.879 119.665 124.82 119.979 125.783Z" fill="#3F3D56"/>
<path d="M118.893 122.936H61.094C61.4424 122.139 61.8236 121.36 62.2376 120.598H117.684V120.471C118.123 121.272 118.527 122.094 118.893 122.936Z" fill="#3F3D56"/>
<path d="M117.472 120.09H62.5153C65.2645 115.201 69.2573 111.133 74.0854 108.303C78.9134 105.472 84.4034 103.98 89.9937 103.98C95.5839 103.98 101.074 105.472 105.902 108.303C110.73 111.133 114.723 115.201 117.472 120.09Z" fill="#3F3D56"/>
<path opacity="0.5" d="M59.3445 143.214C59.3544 143.265 59.3671 143.315 59.3823 143.364H59.3445V143.214Z" fill="black"/>
<path opacity="0.5" d="M120.645 143.214V143.364H120.608C120.623 143.315 120.635 143.265 120.645 143.214Z" fill="black"/>
<path opacity="0.5" d="M121.547 137.166V137.674H121.484C121.489 137.61 121.494 137.547 121.496 137.483C121.501 137.377 121.506 137.273 121.511 137.166H121.547Z" fill="black"/>
<path opacity="0.5" d="M121.547 134.319V134.826H121.534C121.532 134.656 121.524 134.489 121.516 134.319H121.547Z" fill="black"/>
<path opacity="0.5" d="M120.774 128.628V128.675C120.772 128.659 120.767 128.644 120.764 128.628H120.774Z" fill="black"/>
<path opacity="0.5" d="M61.0839 122.936H61.0945C61.0921 122.944 61.0885 122.952 61.0839 122.959V122.936Z" fill="black"/>
<path opacity="0.5" d="M118.907 122.936V122.962C118.903 122.953 118.898 122.944 118.893 122.936H118.907Z" fill="black"/>
<path opacity="0.5" d="M115.687 117.245H64.3027V117.752H115.687V117.245Z" fill="black"/>
<path opacity="0.5" d="M113.691 114.399H66.4277V114.906H113.691V114.399Z" fill="black"/>
<path opacity="0.5" d="M110.664 111.553H69.3253V112.06H110.664V111.553Z" fill="black"/>
<path opacity="0.5" d="M106.865 108.706L72.48 108.773L72.481 109.28L106.866 109.213L106.865 108.706Z" fill="black"/>
<path d="M85.4201 119.02H70.3525V152.556H85.4201V119.02Z" fill="#E6E6E6"/>
<path d="M77.2453 122.178H77.8832C78.8233 122.178 79.7248 122.553 80.3896 123.221C81.0543 123.888 81.4277 124.794 81.4277 125.738V130.779H73.7008V125.738C73.7008 124.794 74.0742 123.888 74.739 123.221C75.4037 122.553 76.3053 122.178 77.2453 122.178Z" fill="#3F3D56"/>
<path d="M104.805 118.727C105.83 118.727 106.812 119.136 107.537 119.864C108.261 120.591 108.668 121.578 108.668 122.608V128.946H100.941V122.608C100.941 121.578 101.348 120.591 102.073 119.864C102.798 119.136 103.78 118.727 104.805 118.727Z" fill="#E6E6E6"/>
<path d="M119.486 131.663C119.486 131.965 119.469 132.267 119.436 132.568H89.9949V130.886H119.449C119.473 131.144 119.486 131.403 119.486 131.663Z" fill="#E6E6E6"/>
<path d="M94.2198 125.986L94.506 125.542C94.4211 125.306 94.3231 125.076 94.2124 124.851L94.0273 125.001L94.1738 124.774C94.0342 124.498 93.9243 124.324 93.9243 124.324C93.5717 124.902 93.3132 125.534 93.1585 126.194L93.5258 126.764L93.1192 126.434C93.1048 126.547 93.0973 126.659 93.0969 126.772C93.0969 127.912 93.4673 128.835 93.9243 128.835C94.3812 128.835 94.7517 127.912 94.7517 126.772C94.7431 126.41 94.6793 126.051 94.5624 125.708L94.2198 125.986Z" fill="white"/>
<path d="M96.2456 126.973L96.7607 126.863C96.8665 126.636 96.9595 126.403 97.0391 126.166L96.8026 126.141L97.0663 126.084C97.162 125.789 97.2067 125.588 97.2067 125.588C96.5501 125.747 95.9228 126.01 95.3485 126.367L95.2069 127.031L95.1516 126.509C95.0625 126.578 94.9778 126.652 94.8979 126.732C94.0959 127.538 93.7077 128.454 94.0308 128.778C94.3539 129.103 95.266 128.713 96.068 127.907C96.3171 127.645 96.5247 127.346 96.6835 127.02L96.2456 126.973Z" fill="white"/>
<path d="M96.4338 131.382C95.2392 131.459 93.9376 131.377 92.553 131.382V128.197C93.8403 128.379 95.1464 128.379 96.4338 128.197V131.382Z" fill="#E6E6E6"/>
<path d="M113.666 125.986L113.952 125.542C113.867 125.306 113.769 125.076 113.659 124.851L113.473 125.001L113.62 124.774C113.48 124.498 113.37 124.324 113.37 124.324C113.018 124.902 112.759 125.534 112.605 126.194L112.972 126.764L112.565 126.434C112.551 126.547 112.543 126.659 112.543 126.772C112.543 127.912 112.914 128.835 113.37 128.835C113.827 128.835 114.198 127.912 114.198 126.772C114.189 126.41 114.125 126.051 114.009 125.708L113.666 125.986Z" fill="white"/>
<path d="M115.692 126.973L116.207 126.863C116.313 126.636 116.406 126.403 116.485 126.166L116.249 126.141L116.513 126.084C116.608 125.789 116.653 125.588 116.653 125.588C115.996 125.747 115.369 126.01 114.795 126.367L114.653 127.031L114.598 126.509C114.509 126.578 114.424 126.652 114.344 126.732C113.542 127.538 113.154 128.454 113.477 128.778C113.8 129.103 114.712 128.713 115.514 127.907C115.763 127.645 115.971 127.346 116.13 127.02L115.692 126.973Z" fill="white"/>
<path d="M115.88 131.382C114.685 131.459 113.384 131.377 111.999 131.382V128.197C113.286 128.379 114.593 128.379 115.88 128.197V131.382Z" fill="#E6E6E6"/>
<path d="M72.1555 138.075C73.009 138.075 73.7009 137.49 73.7009 136.768C73.7009 136.046 73.009 135.461 72.1555 135.461C71.302 135.461 70.6101 136.046 70.6101 136.768C70.6101 137.49 71.302 138.075 72.1555 138.075Z" fill="#3F3D56"/>
<path d="M163.26 176.025C147.1 199.207 120.312 214.366 90 214.366C59.3243 214.366 32.2586 198.842 16.1647 175.188C30.0244 148.727 58.1655 155.282 90 155.282C122.168 155.282 149.546 149.11 163.26 176.025Z" fill="white"/>
<path d="M90 161.622C120.599 161.622 146.864 156.039 161.156 178.661C161.876 177.712 162.577 176.749 163.26 175.771C149.546 148.857 122.168 155.029 90 155.029C58.1655 155.029 30.0244 148.474 16.1647 174.935C16.8498 175.942 17.5552 176.933 18.2808 177.91C32.7625 155.689 59.7088 161.622 90 161.622Z" fill="#CA181C"/>
<path d="M89.9999 215C68.0596 214.983 46.8832 206.906 30.4614 192.291C14.0397 177.676 3.50685 157.533 0.847903 135.657C-1.81104 113.781 3.58755 91.6841 16.0263 73.5299C28.465 55.3757 47.0847 42.4182 68.3765 37.0995C89.6683 31.7807 112.162 34.468 131.617 44.6548C151.073 54.8416 166.147 71.8245 174 92.4029C181.852 112.981 181.94 135.734 174.247 156.373C166.554 177.012 151.611 194.112 132.234 204.45C119.227 211.383 104.725 215.005 89.9999 215ZM89.9999 34.9586C76.4473 34.9647 63.074 38.0713 50.8947 44.0426C38.7154 50.0139 28.0501 58.693 19.7079 69.4216C11.3657 80.1501 5.56565 92.6462 2.74793 105.962C-0.0697971 119.277 0.168765 133.063 3.44552 146.272C6.72227 159.481 12.9511 171.767 21.6595 182.198C30.368 192.629 41.3271 200.931 53.7057 206.473C66.0842 212.016 79.5569 214.653 93.1016 214.186C106.646 213.72 119.907 210.16 131.878 203.778C144.333 197.095 155.048 187.563 163.156 175.951C171.797 163.515 177.161 149.084 178.748 134.003C180.334 118.922 178.091 103.683 172.229 89.7075C165.407 73.4669 153.966 59.6092 139.339 49.8703C124.712 40.1314 107.549 34.9442 89.9999 34.9586Z" fill="#3F3D56"/>
<path d="M90 214.493C78.2466 214.496 66.6078 212.172 55.7485 207.656C44.8892 203.139 35.0223 196.518 26.7114 188.17C18.4005 179.822 11.8084 169.911 7.31182 159.003C2.81522 148.095 0.502196 136.405 0.504885 124.599C0.504885 75.0312 40.6522 34.705 90 34.705C139.348 34.705 179.495 75.0312 179.495 124.599C179.535 143.026 173.9 161.015 163.363 176.099C155.103 187.946 144.124 197.621 131.354 204.304C118.584 210.987 104.399 214.482 90 214.493ZM90 35.4658C41.0698 35.4658 1.26225 75.4507 1.26225 124.599C1.26367 143.562 7.28556 162.03 18.4527 177.32C29.6198 192.61 45.3503 203.924 63.3578 209.618C81.3653 215.313 100.712 215.09 118.585 208.984C136.458 202.877 151.927 191.204 162.743 175.662C173.191 160.706 178.778 142.87 178.738 124.599C178.738 75.4507 138.93 35.4658 90 35.4658Z" fill="#3F3D56"/>
<path d="M33.324 75.9117C46.6392 75.9117 57.4334 65.0695 57.4334 51.6949C57.4334 38.3203 46.6392 27.478 33.324 27.478C20.0087 27.478 9.2146 38.3203 9.2146 51.6949C9.2146 65.0695 20.0087 75.9117 33.324 75.9117Z" fill="#CA181C"/>
<path d="M135.162 82.9205C157.958 82.9205 176.438 64.3581 176.438 41.4603C176.438 18.5624 157.958 0 135.162 0C112.366 0 93.8855 18.5624 93.8855 41.4603C93.8855 64.3581 112.366 82.9205 135.162 82.9205Z" fill="white"/>
<path opacity="0.2" d="M165.866 13.7681C169.716 22.8144 170.238 32.9411 167.339 42.3387C164.44 51.7362 158.309 59.7922 150.041 65.067C141.773 70.3419 131.908 72.4919 122.207 71.1329C112.506 69.7738 103.603 64.9943 97.0872 57.6484C99.4391 63.1753 102.959 68.1226 107.404 72.1473C111.848 76.1721 117.111 79.1782 122.826 80.9573C128.542 82.7364 134.575 83.246 140.506 82.4507C146.438 81.6555 152.126 79.5745 157.177 76.3518C162.228 73.1292 166.522 68.842 169.76 63.7872C172.998 58.7325 175.103 53.0311 175.929 47.078C176.756 41.125 176.284 35.0626 174.546 29.3109C172.808 23.5593 169.846 18.2558 165.866 13.7681Z" fill="black"/>
<path d="M135.275 41.4603H135.389L137.43 159.007H133.121L135.275 41.4603Z" fill="#3F3D56"/>
<path d="M142.791 105.487L141.84 103.673L135.017 107.281L135.968 109.095L142.791 105.487Z" fill="#3F3D56"/>
<path d="M128.51 153.916C128.51 153.916 128.685 150.247 132.258 150.673L128.51 153.916Z" fill="#3F3D56"/>
<path d="M127.5 150.424C128.488 150.424 129.289 149.62 129.289 148.628C129.289 147.635 128.488 146.831 127.5 146.831C126.513 146.831 125.712 147.635 125.712 148.628C125.712 149.62 126.513 150.424 127.5 150.424Z" fill="white"/>
<path d="M127.714 151.653H127.209V155.203H127.714V151.653Z" fill="#3F3D56"/>
<path d="M151.989 160.763C151.989 160.763 152.163 157.093 155.737 157.52L151.989 160.763Z" fill="#3F3D56"/>
<path d="M150.979 157.271C151.967 157.271 152.767 156.467 152.767 155.474C152.767 154.482 151.967 153.678 150.979 153.678C149.991 153.678 149.19 154.482 149.19 155.474C149.19 156.467 149.991 157.271 150.979 157.271Z" fill="white"/>
<path d="M151.193 158.5H150.688V162.05H151.193V158.5Z" fill="#3F3D56"/>
<path d="M26.5187 162.284C26.5187 162.284 26.693 158.615 30.2669 159.041L26.5187 162.284Z" fill="#3F3D56"/>
<path d="M25.5089 158.792C26.4968 158.792 27.2976 157.988 27.2976 156.996C27.2976 156.003 26.4968 155.199 25.5089 155.199C24.521 155.199 23.7202 156.003 23.7202 156.996C23.7202 157.988 24.521 158.792 25.5089 158.792Z" fill="white"/>
<path d="M25.7228 160.021H25.2179V163.571H25.7228V160.021Z" fill="#3F3D56"/>
<path d="M142.648 156.452C142.648 156.452 142.822 152.783 146.396 153.209L142.648 156.452Z" fill="#3F3D56"/>
<path d="M141.638 152.96C142.626 152.96 143.427 152.156 143.427 151.164C143.427 150.171 142.626 149.367 141.638 149.367C140.65 149.367 139.849 150.171 139.849 151.164C139.849 152.156 140.65 152.96 141.638 152.96Z" fill="white"/>
<path d="M141.852 154.189H141.347V157.739H141.852V154.189Z" fill="#3F3D56"/>
<path d="M45.8672 53.1288L48.1912 51.2617C46.3858 51.0617 45.6439 52.0507 45.3403 52.8335C43.9299 52.2452 42.3944 53.0162 42.3944 53.0162L47.0443 54.7118C46.8098 54.0825 46.4014 53.5333 45.8672 53.1288Z" fill="#3F3D56"/>
<path d="M81.2108 72.1473L83.5348 70.2802C81.7294 70.0802 80.9876 71.0692 80.684 71.852C79.2735 71.2637 77.738 72.0347 77.738 72.0347L82.388 73.7303C82.1534 73.101 81.745 72.5518 81.2108 72.1473Z" fill="#3F3D56"/>
<path d="M43.0902 88.3764L45.4142 86.5094C43.6088 86.3093 42.867 87.2983 42.5634 88.0811C41.1529 87.4929 39.6174 88.2638 39.6174 88.2638L44.2674 89.9594C44.0328 89.3301 43.6244 88.781 43.0902 88.3764Z" fill="#3F3D56"/>
<path opacity="0.2" d="M121.304 136.01C121.31 140.09 120.473 144.126 118.848 147.865L66.4965 121.513L62.5153 119.527L67.9102 119.231L114.667 116.665C119.118 121.858 121.304 128.618 121.304 136.01Z" fill="black"/>
<path d="M127.616 119.528H52.3843V113.442L89.7475 97.7197L127.616 113.442V119.528Z" fill="#CA181C"/>
</g>
<defs>
<clipPath id="clip0_1_2080">
<rect width="180" height="215" fill="white"/>
</clipPath>
</defs>
</svg>
